<svg width="739" height="528" viewBox="0 0 739 528" fill="none" xmlns="http://www.w3.org/2000/svg">
<path d="M433.688 136.042L433.706 136.052L433.723 136.061C469.219 155.298 481.965 197.731 462.783 231.841L462.77 231.864L462.757 231.888L461.672 233.944C442.237 268.64 455.631 311.625 491.912 330.618C528.128 349.576 573.631 337.696 594.185 303.711C594.189 303.704 594.193 303.698 594.197 303.692L595.491 301.649L595.502 301.633L595.512 301.617C616.009 267.85 661.587 255.637 698.007 274.707C734.581 293.951 747.741 337.601 727.498 372.105L727.497 372.106C666.607 476.103 528.205 513.662 418.488 455.94L418.485 455.938C308.383 398.243 268.666 267.297 329.514 163.373L329.515 163.371C349.577 129.012 394.905 116.388 431.537 134.82L432.591 135.418L433.688 136.042Z" stroke="#FF7B39" stroke-width="4"/>
<path d="M358.054 34.4752L358.056 34.4743C367.463 29.8469 378.754 33.8967 383.211 43.656L383.213 43.6595C387.625 53.2727 383.581 64.7785 374.255 69.3637C374.255 69.3637 374.255 69.3637 374.255 69.3637L317.752 97.1402L317.751 97.1406C308.234 101.824 296.832 97.6059 292.485 87.736L292.484 87.7333L266.69 29.3963L266.688 29.3921C262.389 19.7272 266.594 8.2762 275.979 3.80071L275.979 3.80045C285.435 -0.712229 296.732 3.56069 301.023 13.3174L301.025 13.3202L318.018 51.7991L318.859 53.7037L320.729 52.7867L358.054 34.4752Z" stroke="#008DEB" stroke-width="4"/>
<path d="M241.093 119.115L241.127 119.149L241.162 119.182C265.763 141.962 268.022 181.02 246.011 206.637L109.214 365.395L109.214 365.396C86.8769 391.341 48.2842 393.81 22.831 371.043C-2.63586 348.263 -5.07252 308.86 17.2904 282.884C17.2906 282.884 17.2908 282.884 17.291 282.883L154.086 124.127C154.087 124.126 154.088 124.125 154.089 124.124C176.243 98.5459 214.276 95.7188 239.72 117.715L240.378 118.386L241.093 119.115Z" stroke="#E31587" stroke-width="4"/>
<path d="M443 404.154C443 471.516 390.327 526 325.5 526C260.673 526 208 471.516 208 404.154C208 336.793 260.673 282.309 325.5 282.309C390.327 282.309 443 336.793 443 404.154Z" stroke="#7542E5" stroke-width="4"/>
</svg>
