<svg width="2942" height="1860" viewBox="0 0 2942 1860" fill="none" xmlns="http://www.w3.org/2000/svg">
<path d="M402 247.4C425.7 260.6 452.5 267.5 479.4 267.5C507.4 267.5 535.1 260.1 559.4 246.1C584.4 231.7 605.1 210.6 619.2 185.2L619.3 185C633.5 159.2 624.1 126.7 598.4 112.4C590.5 108 581.5 105.7 572.5 105.7C553.4 105.7 535.6 116 526.1 132.5L525.2 134.1C515.9 150.4 498.4 160.5 479.6 160.5C470.7 160.5 461.9 158.2 454 153.9C441.8 147.2 432.9 136.1 429 122.8C425.1 109.5 426.5 95.4 433 83L433.8 81.5C440.4 69.1 441.9 54.9 438 41.5C434.1 28.1 425.4 16.8 413.2 9.89995L411.6 8.99995C403.8 4.89995 395.1 2.69995 386.4 2.69995C367 2.69995 349 13.2999 339.6 30.2999C318.9 67.5999 314 110.8 325.8 151.8C337.6 192.7 364.6 226.7 402 247.4ZM343.1 32C351.8 16.3 368.4 6.49995 386.4 6.49995C394.4 6.49995 402.5 8.49995 409.6 12.3L411.1 13.2C422.3 19.6 430.4 30 434 42.4C437.6 54.8 436.2 68 430.1 79.4L429.3 81C422.3 94.2 420.8 109.4 425 123.7C429.2 138.1 438.8 150 451.9 157.2C460.3 161.9 469.9 164.3 479.4 164.3C499.6 164.3 518.4 153.4 528.4 136L529.4 134.4C538.2 119.1 554.7 109.6 572.4 109.6C580.7 109.6 589 111.7 596.4 115.8C620.2 129 628.9 159.2 615.8 183L615.7 183.1C602 207.9 581.8 228.4 557.4 242.5C533.7 256.2 506.7 263.4 479.4 263.4C453.2 263.4 427.2 256.6 404.1 243.8H404C367.5 223.6 341.1 190.5 329.6 150.5C318.1 110.6 322.9 68.5 343.1 32Z" fill="currentColor"/>
<path d="M1774.59 247.4C1798.29 260.6 1825.09 267.5 1851.99 267.5C1879.99 267.5 1907.69 260.1 1931.99 246.1C1956.99 231.7 1977.69 210.6 1991.79 185.2L1991.89 185C2006.09 159.2 1996.69 126.7 1970.99 112.4C1963.09 108 1954.09 105.7 1945.09 105.7C1925.99 105.7 1908.19 116 1898.69 132.5L1897.79 134.1C1888.49 150.4 1870.99 160.5 1852.19 160.5C1843.29 160.5 1834.49 158.2 1826.59 153.9C1814.39 147.2 1805.49 136.1 1801.59 122.8C1797.69 109.5 1799.09 95.4 1805.59 83L1806.39 81.5C1812.99 69.1 1814.49 54.9 1810.59 41.5C1806.69 28.1 1797.99 16.8 1785.79 9.89995L1784.19 8.99995C1776.39 4.89995 1767.69 2.69995 1758.99 2.69995C1739.59 2.69995 1721.59 13.2999 1712.19 30.2999C1691.49 67.5999 1686.59 110.8 1698.39 151.8C1710.19 192.7 1737.19 226.7 1774.59 247.4ZM1715.69 32C1724.39 16.3 1740.99 6.49995 1758.99 6.49995C1766.99 6.49995 1775.09 8.49995 1782.19 12.3L1783.69 13.2C1794.89 19.6 1802.99 30 1806.59 42.4C1810.19 54.8 1808.79 68 1802.69 79.4L1801.89 81C1794.89 94.2 1793.39 109.4 1797.59 123.7C1801.79 138.1 1811.39 150 1824.49 157.2C1832.89 161.9 1842.49 164.3 1851.99 164.3C1872.19 164.3 1890.99 153.4 1900.99 136L1901.99 134.4C1910.79 119.1 1927.29 109.6 1944.99 109.6C1953.29 109.6 1961.59 111.7 1968.99 115.8C1992.79 129 2001.49 159.2 1988.39 183L1988.29 183.1C1974.59 207.9 1954.39 228.4 1929.99 242.5C1906.29 256.2 1879.29 263.4 1851.99 263.4C1825.79 263.4 1799.79 256.6 1776.69 243.8H1776.59C1740.09 223.6 1713.69 190.5 1702.19 150.5C1690.69 110.6 1695.49 68.5 1715.69 32Z" fill="currentColor"/>
<path d="M822.1 813.4L822.4 812.9C836.6 787.1 827.2 754.5 801.5 740.2C793.6 735.8 784.6 733.5 775.6 733.5C756.5 733.5 738.7 743.8 729.2 760.3L728.3 761.9C719 778.2 701.5 788.3 682.7 788.3C673.8 788.3 665 786 657.1 781.7C644.9 775 636 763.9 632.1 750.6C628.2 737.3 629.6 723.2 636.1 710.8L636.9 709.3C643.5 696.9 645 682.7 641.1 669.3C637.2 655.9 628.5 644.6 616.3 637.7L614.7 636.8C606.9 632.7 598.2 630.5 589.5 630.5C570.1 630.5 552.1 641.1 542.7 658.1C522 695.4 517.1 738.6 528.9 779.6C540.7 820.6 567.8 854.6 605.2 875.3C628.9 888.4 655.6 895.4 682.5 895.4C710.5 895.4 738.2 888 762.5 874C787.4 859.5 808 838.6 822.1 813.4ZM682.5 891.3C656.3 891.3 630.2 884.5 607.1 871.7C570.7 851.5 544.2 818.4 532.7 778.4C521.2 738.4 526 696.3 546.2 659.9C554.9 644.2 571.5 634.4 589.5 634.4C597.5 634.4 605.6 636.4 612.7 640.2L614.2 641.1C625.4 647.5 633.5 657.9 637.1 670.3C640.7 682.7 639.3 695.9 633.2 707.3L632.4 708.9C625.4 722.1 623.9 737.3 628.1 751.6C632.3 766 641.9 777.9 655 785.1C663.4 789.8 673 792.2 682.5 792.2C702.7 792.2 721.5 781.3 731.5 763.9L732.5 762.3C741.3 747 757.7 737.5 775.5 737.5C783.8 737.5 792.1 739.6 799.5 743.7C823.2 756.9 831.9 786.8 819 810.6L818.8 811C805.1 835.8 784.9 856.3 760.5 870.4C736.8 884 709.8 891.3 682.5 891.3Z" fill="currentColor"/>
<path d="M2479.49 958.9L2479.79 958.4C2493.99 932.6 2484.59 900 2458.89 885.7C2450.99 881.3 2441.99 879 2432.99 879C2413.89 879 2396.09 889.3 2386.59 905.8L2385.69 907.4C2376.39 923.7 2358.89 933.8 2340.09 933.8C2331.19 933.8 2322.39 931.5 2314.49 927.2C2302.29 920.5 2293.39 909.4 2289.49 896.1C2285.59 882.8 2286.99 868.7 2293.49 856.3L2294.29 854.8C2300.89 842.4 2302.39 828.2 2298.49 814.8C2294.59 801.4 2285.89 790.1 2273.69 783.2L2272.09 782.3C2264.29 778.2 2255.59 776 2246.89 776C2227.49 776 2209.49 786.6 2200.09 803.6C2179.39 840.9 2174.49 884.1 2186.29 925.1C2198.09 966.1 2225.19 1000.1 2262.59 1020.8C2286.29 1033.9 2312.99 1040.9 2339.89 1040.9C2367.89 1040.9 2395.59 1033.5 2419.89 1019.5C2444.79 1005 2465.39 984.1 2479.49 958.9ZM2339.89 1036.8C2313.69 1036.8 2287.59 1030 2264.49 1017.2C2228.09 997 2201.59 963.9 2190.09 923.9C2178.59 883.9 2183.39 841.8 2203.59 805.4C2212.29 789.7 2228.89 779.9 2246.89 779.9C2254.89 779.9 2262.99 781.9 2270.09 785.7L2271.59 786.6C2282.79 793 2290.89 803.4 2294.49 815.8C2298.09 828.2 2296.69 841.4 2290.59 852.8L2289.79 854.4C2282.79 867.6 2281.29 882.8 2285.49 897.1C2289.69 911.5 2299.29 923.4 2312.39 930.6C2320.79 935.3 2330.39 937.7 2339.89 937.7C2360.09 937.7 2378.89 926.8 2388.89 909.4L2389.89 907.8C2398.69 892.5 2415.09 883 2432.89 883C2441.19 883 2449.49 885.1 2456.89 889.2C2480.59 902.4 2489.29 932.3 2476.39 956.1L2476.19 956.5C2462.49 981.3 2442.29 1001.8 2417.89 1015.9C2394.19 1029.5 2367.19 1036.8 2339.89 1036.8Z" fill="currentColor"/>
<path d="M905.9 231.2C916 240 928.8 244.9 942.1 244.9C943.3 244.9 944.5 244.9 945.7 244.8C960.3 243.9 973.7 237.3 983.4 226.2L1097.2 96.6L1101.1 92.1C1120.7 69.7 1118.8 35.4 1096.9 15.4L1095.6 14.1L1095.5 14C1084.5 4.59995 1070.4 0.0999526 1056 1.09995C1041.6 2.19995 1028.3 8.69995 1018.7 19.6L901 153.7C881 176.5 883.2 211.2 905.9 231.2ZM904 156.3L1021.7 22.3C1030.6 12.2 1042.9 6.09995 1056.3 5.09995C1057.6 4.99995 1058.8 4.99995 1060.1 4.99995C1072 4.99995 1083.5 9.09995 1092.7 16.9L1092.6 17L1094.2 18.3C1114.4 36.7 1116.4 68.3 1098.7 89L980.4 223.6C971.4 233.8 959 239.9 945.5 240.8C944.4 240.9 943.3 240.9 942.2 240.9C929.9 240.9 917.9 236.4 908.6 228.2C887.5 209.7 885.5 177.4 904 156.3Z" fill="currentColor"/>
<path d="M2278.49 231.2C2288.59 240 2301.39 244.9 2314.69 244.9C2315.89 244.9 2317.09 244.9 2318.29 244.8C2332.89 243.9 2346.29 237.3 2355.99 226.2L2469.79 96.6L2473.69 92.1C2493.29 69.7 2491.39 35.4 2469.49 15.4L2468.19 14.1L2468.09 14C2457.09 4.59995 2442.99 0.0999526 2428.59 1.09995C2414.19 2.19995 2400.89 8.69995 2391.29 19.6L2273.59 153.7C2253.59 176.5 2255.79 211.2 2278.49 231.2ZM2276.59 156.3L2394.29 22.3C2403.19 12.2 2415.49 6.09995 2428.89 5.09995C2430.19 4.99995 2431.39 4.99995 2432.69 4.99995C2444.59 4.99995 2456.09 9.09995 2465.29 16.9L2465.19 17L2466.79 18.3C2486.99 36.7 2488.99 68.3 2471.29 89L2352.99 223.6C2343.99 233.8 2331.59 239.9 2318.09 240.8C2316.99 240.9 2315.89 240.9 2314.79 240.9C2302.49 240.9 2290.49 236.4 2281.19 228.2C2260.09 209.7 2258.09 177.4 2276.59 156.3Z" fill="currentColor"/>
<path d="M538 421.9L541.1 418.4C560.7 396 558.8 361.6 536.8 341.6L535.6 340.4L535.5 340.3C524.5 330.9 510.4 326.4 496 327.4C481.6 328.5 468.3 335 458.7 345.9L341 479.9C321 502.7 323.2 537.4 346 557.4C356 566.2 368.9 571 382.3 571C398.1 571 413.1 564.2 423.5 552.4L538 421.9ZM420.4 549.7C410.8 560.7 396.8 567 382.2 567C369.8 567 357.9 562.5 348.6 554.3C327.5 535.8 325.5 503.6 344 482.5L461.7 348.5C470.6 338.4 482.9 332.3 496.3 331.3C497.6 331.2 498.8 331.2 500.1 331.2C512 331.2 523.4 335.3 532.6 343L534.2 344.4C554.6 362.9 556.4 394.8 538.4 415.5L420.4 549.7Z" fill="currentColor"/>
<path d="M1910.59 421.9L1913.69 418.4C1933.29 396 1931.39 361.6 1909.39 341.6L1908.19 340.4L1908.09 340.3C1897.09 330.9 1882.99 326.4 1868.59 327.4C1854.19 328.5 1840.89 335 1831.29 345.9L1713.59 479.9C1693.59 502.7 1695.79 537.4 1718.59 557.4C1728.59 566.2 1741.49 571 1754.89 571C1770.69 571 1785.69 564.2 1796.09 552.4L1910.59 421.9ZM1792.99 549.7C1783.39 560.7 1769.39 567 1754.79 567C1742.39 567 1730.49 562.5 1721.19 554.3C1700.09 535.8 1698.09 503.6 1716.59 482.5L1834.29 348.5C1843.19 338.4 1855.49 332.3 1868.89 331.3C1870.19 331.2 1871.39 331.2 1872.69 331.2C1884.59 331.2 1895.99 335.3 1905.19 343L1906.79 344.4C1927.19 362.9 1928.99 394.8 1910.99 415.5L1792.99 549.7Z" fill="currentColor"/>
<path d="M1180.2 711.1L1180.1 711C1169.1 701.6 1155 697.1 1140.6 698.1C1126.2 699.2 1112.9 705.7 1103.3 716.6L985.6 850.6C965.6 873.4 967.8 908.1 990.6 928.1C1000.7 936.9 1013.5 941.8 1026.8 941.8C1028 941.8 1029.2 941.8 1030.4 941.7C1045 940.8 1058.4 934.2 1068.1 923.1L1185 790.1L1186.3 788.6C1205.4 766.2 1203.3 732.1 1181.5 712.4L1180.2 711.1ZM1182.8 786.5L1065.1 920.5C1056.1 930.7 1043.7 936.8 1030.2 937.7C1029.1 937.8 1028 937.8 1026.9 937.8C1014.6 937.8 1002.6 933.3 993.3 925.1C972.2 906.6 970.2 874.4 988.7 853.3L1106.4 719.3C1115.3 709.2 1127.6 703.1 1141 702.1C1142.3 702 1143.5 702 1144.8 702C1156.8 702 1168.3 706.2 1177.6 714L1178.9 715.3C1199.1 733.8 1200.9 765.8 1182.8 786.5Z" fill="currentColor"/>
<path d="M2161.26 1054.14L2161.16 1054.04C2150.16 1044.64 2136.06 1040.14 2121.66 1041.14C2107.26 1042.24 2093.96 1048.74 2084.36 1059.64L1966.66 1193.64C1946.66 1216.44 1948.86 1251.14 1971.66 1271.14C1981.76 1279.94 1994.56 1284.84 2007.86 1284.84C2009.06 1284.84 2010.26 1284.84 2011.46 1284.74C2026.06 1283.84 2039.46 1277.24 2049.16 1266.14L2166.06 1133.14L2167.36 1131.64C2186.46 1109.24 2184.36 1075.14 2162.56 1055.44L2161.26 1054.14ZM2163.86 1129.54L2046.16 1263.54C2037.16 1273.74 2024.76 1279.84 2011.26 1280.74C2010.16 1280.84 2009.06 1280.84 2007.96 1280.84C1995.66 1280.84 1983.66 1276.34 1974.36 1268.14C1953.26 1249.64 1951.26 1217.44 1969.76 1196.34L2087.46 1062.34C2096.36 1052.24 2108.66 1046.14 2122.06 1045.14C2123.36 1045.04 2124.56 1045.04 2125.86 1045.04C2137.86 1045.04 2149.36 1049.24 2158.66 1057.04L2159.96 1058.34C2180.16 1076.84 2181.96 1108.84 2163.86 1129.54Z" fill="currentColor"/>
<path d="M1107.2 430.1L1117.7 534.6L1117.8 535.6L1012.2 543.4C998.3 544.4 985.6 550.9 976.6 561.5C967.6 572.1 963.3 585.6 964.6 599.4C965.8 612.5 971.8 624.5 981.5 633.4C991.2 642.2 1003.7 647.1 1016.7 647.1C1018 647.1 1019.3 647.1 1020.6 647L1179.2 635.2C1193.2 634.2 1205.9 627.7 1215 616.9C1224.1 606.1 1228.3 592.4 1226.9 578.4L1210.9 420.4C1209.6 407.5 1203.5 395.6 1193.8 386.8C1184.2 378.1 1171.8 373.3 1158.9 373.3C1157.3 373.3 1155.8 373.4 1154.2 373.5C1140.2 374.7 1127.7 381.3 1118.8 392C1109.9 402.8 1105.8 416.3 1107.2 430.1ZM1121.8 394.6C1130 384.7 1141.6 378.6 1154.5 377.5C1155.9 377.4 1157.4 377.3 1158.8 377.3C1170.6 377.3 1182.1 381.7 1191 389.7C1200 397.8 1205.6 408.8 1206.8 420.7L1222.8 578.7C1224.1 591.6 1220.2 604.3 1211.8 614.2C1203.4 624.1 1191.7 630.1 1178.8 631.1L1020.1 643C1006.8 644 993.8 639.5 984 630.5C975 622.3 969.5 611.2 968.4 599.1C967.3 586.4 971.2 574 979.5 564.2C987.9 554.4 999.5 548.4 1012.4 547.5L1117 539.8L1122.1 539.4L1111.1 429.8C1109.9 416.9 1113.6 404.5 1121.8 394.6Z" fill="currentColor"/>
<path d="M2479.79 430.1L2490.29 534.6L2490.39 535.6L2384.79 543.4C2370.89 544.4 2358.19 550.9 2349.19 561.5C2340.19 572.1 2335.89 585.6 2337.19 599.4C2338.39 612.5 2344.39 624.5 2354.09 633.4C2363.79 642.2 2376.29 647.1 2389.29 647.1C2390.59 647.1 2391.89 647.1 2393.19 647L2551.79 635.2C2565.79 634.2 2578.49 627.7 2587.59 616.9C2596.69 606.1 2600.89 592.4 2599.49 578.4L2583.49 420.4C2582.19 407.5 2576.09 395.6 2566.39 386.8C2556.79 378.1 2544.39 373.3 2531.49 373.3C2529.89 373.3 2528.39 373.4 2526.79 373.5C2512.79 374.7 2500.29 381.3 2491.39 392C2482.49 402.8 2478.39 416.3 2479.79 430.1ZM2494.39 394.6C2502.59 384.7 2514.19 378.6 2527.09 377.5C2528.49 377.4 2529.99 377.3 2531.39 377.3C2543.19 377.3 2554.69 381.7 2563.59 389.7C2572.59 397.8 2578.19 408.8 2579.39 420.7L2595.39 578.7C2596.69 591.6 2592.79 604.3 2584.39 614.2C2575.99 624.1 2564.29 630.1 2551.39 631.1L2392.69 643C2379.39 644 2366.39 639.5 2356.59 630.5C2347.59 622.3 2342.09 611.2 2340.99 599.1C2339.89 586.4 2343.79 574 2352.09 564.2C2360.49 554.4 2372.09 548.4 2384.99 547.5L2489.59 539.8L2494.69 539.4L2483.69 429.8C2482.49 416.9 2486.19 404.5 2494.39 394.6Z" fill="currentColor"/>
<path d="M1289 285.7C1298.7 294.5 1311.2 299.4 1324.2 299.4C1325.5 299.4 1326.8 299.4 1328.1 299.3L1486.7 287.5C1500.7 286.5 1513.4 280 1522.5 269.2C1531.6 258.4 1535.8 244.7 1534.4 230.7L1518.4 72.6999C1517.1 59.7999 1511 47.8999 1501.3 39.0999C1491.7 30.3999 1479.3 25.5999 1466.4 25.5999V26.5999V25.5999C1464.8 25.5999 1463.3 25.6999 1461.7 25.7999C1447.7 26.9999 1435.2 33.5999 1426.3 44.2999C1417.5 54.9999 1413.4 68.4999 1414.7 82.3999L1425.2 186.9L1425.3 187.9L1319.6 195.7C1305.7 196.7 1293 203.2 1284 213.8C1275 224.4 1270.7 237.9 1272 251.7C1273.3 264.7 1279.3 276.8 1289 285.7ZM1287.2 216.4C1295.6 206.6 1307.2 200.6 1320.1 199.7L1424.7 192L1429.8 191.6L1418.8 81.9999C1417.5 69.1999 1421.3 56.6999 1429.5 46.8999C1437.7 36.9999 1449.3 30.8999 1462.2 29.7999C1463.6 29.6999 1465.1 29.5999 1466.5 29.5999C1478.3 29.5999 1489.8 33.9999 1498.7 41.9999C1507.7 50.0999 1513.3 61.0999 1514.5 72.9999L1530.5 231C1531.8 243.9 1527.9 256.6 1519.5 266.5C1511.1 276.4 1499.4 282.4 1486.5 283.4L1327.9 295.2C1314.6 296.2 1301.6 291.7 1291.8 282.7C1282.8 274.5 1277.3 263.4 1276.2 251.3C1274.9 238.6 1278.9 226.2 1287.2 216.4Z" fill="currentColor"/>
<path d="M2661.59 285.7C2671.29 294.5 2683.79 299.4 2696.79 299.4C2698.09 299.4 2699.39 299.4 2700.69 299.3L2859.29 287.5C2873.29 286.5 2885.99 280 2895.09 269.2C2904.19 258.4 2908.39 244.7 2906.99 230.7L2890.99 72.6999C2889.69 59.7999 2883.59 47.8999 2873.89 39.0999C2864.29 30.3999 2851.89 25.5999 2838.99 25.5999V26.5999V25.5999C2837.39 25.5999 2835.89 25.6999 2834.29 25.7999C2820.29 26.9999 2807.79 33.5999 2798.89 44.2999C2790.09 54.9999 2785.99 68.4999 2787.29 82.3999L2797.79 186.9L2797.89 187.9L2692.19 195.7C2678.29 196.7 2665.59 203.2 2656.59 213.8C2647.59 224.4 2643.29 237.9 2644.59 251.7C2645.89 264.7 2651.89 276.8 2661.59 285.7ZM2659.79 216.4C2668.19 206.6 2679.79 200.6 2692.69 199.7L2797.29 192L2802.39 191.6L2791.39 81.9999C2790.09 69.1999 2793.89 56.6999 2802.09 46.8999C2810.29 36.9999 2821.89 30.8999 2834.79 29.7999C2836.19 29.6999 2837.69 29.5999 2839.09 29.5999C2850.89 29.5999 2862.39 33.9999 2871.29 41.9999C2880.29 50.0999 2885.89 61.0999 2887.09 72.9999L2903.09 231C2904.39 243.9 2900.49 256.6 2892.09 266.5C2883.69 276.4 2871.99 282.4 2859.09 283.4L2700.49 295.2C2687.19 296.2 2674.19 291.7 2664.39 282.7C2655.39 274.5 2649.89 263.4 2648.79 251.3C2647.49 238.6 2651.49 226.2 2659.79 216.4Z" fill="currentColor"/>
<path d="M18.1001 842.6C27.8001 851.4 40.3001 856.3 53.3001 856.3C54.6001 856.3 55.9001 856.3 57.2001 856.2L215.8 844.4H215.9C229.9 843.4 242.6 836.9 251.6 826.1C260.7 815.3 264.9 801.6 263.5 787.6L247.5 629.6C246.2 616.7 240.1 604.8 230.4 596C220.8 587.3 208.4 582.5 195.5 582.5V583.5V582.5C194 582.5 192.4 582.6 190.8 582.7H190.7C176.8 584 164.2 590.5 155.4 601.2C146.6 611.9 142.5 625.4 143.8 639.3L154.4 744.8L48.7001 752.6C34.8001 753.6 22.1001 760.1 13.1001 770.7C4.10015 781.3 -0.199851 794.8 1.00015 808.6C2.40015 821.7 8.40015 833.8 18.1001 842.6ZM16.3001 773.4C24.7001 763.6 36.3001 757.6 49.2001 756.7L153.8 749L158.9 748.6L148 639C146.7 626.2 150.5 613.7 158.7 603.9C166.9 594 178.5 588 191.3 586.8C192.7 586.7 194.2 586.6 195.6 586.6C207.4 586.6 218.9 591 227.8 599C236.8 607.1 242.4 618.1 243.6 630L259.6 788C260.9 800.9 257 813.6 248.6 823.5C240.3 833.4 228.6 839.4 215.7 840.4L56.9002 852.2C43.6002 853.2 30.6001 848.7 20.8001 839.7C11.8001 831.5 6.30015 820.4 5.20015 808.3C4.10015 795.5 8.00015 783.1 16.3001 773.4Z" fill="currentColor"/>
<path d="M754.2 1253.1L912.8 1241.3H912.9C926.9 1240.3 939.6 1233.8 948.6 1223C957.7 1212.2 961.9 1198.6 960.5 1184.5L944.5 1026.5C943.2 1013.6 937.1 1001.7 927.4 992.9C917.8 984.2 905.4 979.4 892.5 979.4C891 979.4 889.5 979.5 887.9 979.6H887.8C873.9 980.9 861.3 987.4 852.5 998.1C843.7 1008.8 839.6 1022.3 840.9 1036.2L851.4 1140.7L851.5 1141.7L745.8 1149.5C731.9 1150.5 719.2 1157 710.2 1167.6C701.2 1178.2 696.9 1191.7 698.2 1205.5C699.4 1218.6 705.4 1230.6 715.1 1239.5C724.8 1248.3 737.3 1253.2 750.3 1253.2C751.6 1253.3 752.9 1253.2 754.2 1253.1ZM702.2 1205.2C701.1 1192.5 705 1180.1 713.3 1170.3C721.7 1160.5 733.3 1154.5 746.2 1153.6L855.9 1145.5L844.9 1035.9C843.6 1023.1 847.4 1010.6 855.6 1000.8C863.8 990.9 875.4 984.9 888.2 983.7C901.6 982.5 914.7 986.9 924.7 995.9C933.7 1004 939.3 1015 940.5 1026.9L956.5 1184.9C957.8 1197.8 953.9 1210.4 945.5 1220.4C937.2 1230.3 925.5 1236.3 912.6 1237.3L753.9 1249.1C752.7 1249.2 751.5 1249.2 750.3 1249.2C738.3 1249.2 726.7 1244.7 717.8 1236.6C708.8 1228.5 703.3 1217.3 702.2 1205.2Z" fill="currentColor"/>
<path d="M2236.23 1442.7L2394.83 1430.9H2394.93C2408.93 1429.9 2421.63 1423.4 2430.63 1412.6C2439.73 1401.8 2443.93 1388.2 2442.53 1374.1L2426.53 1216.1C2425.23 1203.2 2419.13 1191.3 2409.43 1182.5C2399.83 1173.8 2387.43 1169 2374.53 1169C2373.03 1169 2371.53 1169.1 2369.93 1169.2H2369.83C2355.93 1170.5 2343.33 1177 2334.53 1187.7C2325.73 1198.4 2321.63 1211.9 2322.93 1225.8L2333.43 1330.3L2333.53 1331.3L2227.83 1339.1C2213.93 1340.1 2201.23 1346.6 2192.23 1357.2C2183.23 1367.8 2178.93 1381.3 2180.23 1395.1C2181.43 1408.2 2187.43 1420.2 2197.13 1429.1C2206.83 1437.9 2219.33 1442.8 2232.33 1442.8C2233.63 1442.9 2234.93 1442.8 2236.23 1442.7ZM2184.23 1394.8C2183.13 1382.1 2187.03 1369.7 2195.33 1359.9C2203.73 1350.1 2215.33 1344.1 2228.23 1343.2L2337.93 1335.1L2326.93 1225.5C2325.63 1212.7 2329.43 1200.2 2337.63 1190.4C2345.83 1180.5 2357.43 1174.5 2370.23 1173.3C2383.63 1172.1 2396.73 1176.5 2406.73 1185.5C2415.73 1193.6 2421.33 1204.6 2422.53 1216.5L2438.53 1374.5C2439.83 1387.4 2435.93 1400 2427.53 1410C2419.23 1419.9 2407.53 1425.9 2394.63 1426.9L2235.93 1438.7C2234.73 1438.8 2233.53 1438.8 2232.33 1438.8C2220.33 1438.8 2208.73 1434.3 2199.83 1426.2C2190.83 1418.1 2185.33 1406.9 2184.23 1394.8Z" fill="currentColor"/>
<path d="M829.6 518.1C874.2 518.1 910.5 481.8 910.5 437.2C910.5 392.6 874.2 356.3 829.6 356.3C785 356.3 748.7 392.6 748.7 437.2C748.8 481.8 785 518.1 829.6 518.1ZM829.6 360.4C872 360.4 906.5 394.9 906.5 437.3C906.5 479.7 872 514.2 829.6 514.2C787.2 514.2 752.7 479.7 752.7 437.3C752.8 394.9 787.2 360.4 829.6 360.4Z" fill="currentColor"/>
<path d="M2202.19 518.1C2246.79 518.1 2283.09 481.8 2283.09 437.2C2283.09 392.6 2246.79 356.3 2202.19 356.3C2157.59 356.3 2121.29 392.6 2121.29 437.2C2121.39 481.8 2157.59 518.1 2202.19 518.1ZM2202.19 360.4C2244.59 360.4 2279.09 394.9 2279.09 437.3C2279.09 479.7 2244.59 514.2 2202.19 514.2C2159.79 514.2 2125.29 479.7 2125.29 437.3C2125.39 394.9 2159.79 360.4 2202.19 360.4Z" fill="currentColor"/>
<path d="M1357 499.4C1357 544 1393.3 580.3 1437.9 580.3C1482.5 580.3 1518.8 544 1518.8 499.4C1518.8 454.8 1482.5 418.5 1437.9 418.5C1393.3 418.5 1357 454.8 1357 499.4ZM1514.7 499.4C1514.7 541.8 1480.2 576.3 1437.8 576.3C1395.4 576.3 1360.9 541.8 1360.9 499.4C1360.9 457 1395.4 422.5 1437.8 422.5C1480.2 422.5 1514.7 457 1514.7 499.4Z" fill="currentColor"/>
<path d="M2729.59 499.4C2729.59 544 2765.89 580.3 2810.49 580.3C2855.09 580.3 2891.39 544 2891.39 499.4C2891.39 454.8 2855.09 418.5 2810.49 418.5C2765.89 418.5 2729.59 454.8 2729.59 499.4ZM2887.29 499.4C2887.29 541.8 2852.79 576.3 2810.39 576.3C2767.99 576.3 2733.49 541.8 2733.49 499.4C2733.49 457 2767.99 422.5 2810.39 422.5C2852.79 422.5 2887.29 457 2887.29 499.4Z" fill="currentColor"/>
<path d="M94.2003 371.9C138.8 371.9 175.1 335.6 175.1 291C175.1 246.4 138.8 210.1 94.2003 210.1C49.6003 210.1 13.3003 246.4 13.3003 291C13.3003 335.6 49.6003 371.9 94.2003 371.9ZM94.2003 214.2C136.6 214.2 171.1 248.7 171.1 291.1C171.1 333.5 136.6 368 94.2003 368C51.8003 368 17.3003 333.5 17.3003 291.1C17.3003 248.7 51.8003 214.2 94.2003 214.2Z" fill="currentColor"/>
<path d="M391.8 960.4C391.8 1005 428.1 1041.3 472.7 1041.3C517.3 1041.3 553.6 1005 553.6 960.4C553.6 915.8 517.3 879.5 472.7 879.5C428.1 879.5 391.8 915.8 391.8 960.4ZM472.7 883.5C515.1 883.5 549.6 918 549.6 960.4C549.6 1002.8 515.1 1037.3 472.7 1037.3C430.3 1037.3 395.8 1002.8 395.8 960.4C395.8 918 430.3 883.5 472.7 883.5Z" fill="currentColor"/>
<path d="M1676 1022.9C1676 1067.5 1712.3 1103.8 1756.9 1103.8C1801.5 1103.8 1837.8 1067.5 1837.8 1022.9C1837.8 978.3 1801.5 942 1756.9 942C1712.3 942 1676 978.3 1676 1022.9ZM1756.9 946C1799.3 946 1833.8 980.5 1833.8 1022.9C1833.8 1065.3 1799.3 1099.8 1756.9 1099.8C1714.5 1099.8 1680 1065.3 1680 1022.9C1680 980.5 1714.5 946 1756.9 946Z" fill="currentColor"/>
<path d="M1309.7 1244.3C1354.3 1244.3 1390.6 1208 1390.6 1163.4C1390.6 1118.8 1354.3 1082.6 1309.7 1082.6C1265.1 1082.6 1228.8 1118.9 1228.8 1163.4C1228.8 1208 1265.1 1244.3 1309.7 1244.3ZM1309.7 1086.6C1352.1 1086.6 1386.6 1121.1 1386.6 1163.4C1386.6 1205.8 1352.1 1240.3 1309.7 1240.3C1267.3 1240.3 1232.8 1205.8 1232.8 1163.4C1232.8 1121.1 1267.3 1086.6 1309.7 1086.6Z" fill="currentColor"/>
<path d="M2682.29 1244.3C2726.89 1244.3 2763.19 1208 2763.19 1163.4C2763.19 1118.8 2726.89 1082.6 2682.29 1082.6C2637.69 1082.6 2601.39 1118.9 2601.39 1163.4C2601.39 1208 2637.69 1244.3 2682.29 1244.3ZM2682.29 1086.6C2724.69 1086.6 2759.19 1121.1 2759.19 1163.4C2759.19 1205.8 2724.69 1240.3 2682.29 1240.3C2639.89 1240.3 2605.39 1205.8 2605.39 1163.4C2605.39 1121.1 2639.89 1086.6 2682.29 1086.6Z" fill="currentColor"/>
<path d="M257.3 1082.6C212.7 1082.6 176.4 1118.9 176.4 1163.4C176.4 1208 212.7 1244.3 257.3 1244.3C301.9 1244.3 338.2 1208 338.2 1163.4C338.1 1118.9 301.8 1082.6 257.3 1082.6ZM257.3 1240.3C214.9 1240.3 180.4 1205.8 180.4 1163.4C180.4 1121 214.9 1086.6 257.3 1086.6C299.7 1086.6 334.2 1121.1 334.2 1163.4C334.1 1205.8 299.6 1240.3 257.3 1240.3Z" fill="currentColor"/>
<path d="M598.4 1345.4C590.5 1341 581.5 1338.7 572.5 1338.7C553.4 1338.7 535.6 1348.9 526.1 1365.4L525.1 1367C515.8 1383.3 498.3 1393.4 479.5 1393.4C470.6 1393.4 461.8 1391.1 453.9 1386.8C441.7 1380.1 432.8 1369 428.9 1355.7C425 1342.4 426.4 1328.3 432.9 1315.9L433.7 1314.4C440.3 1302.1 441.8 1287.9 437.9 1274.4C434 1261 425.3 1249.7 413.1 1242.8L411.5 1241.9C403.7 1237.8 395 1235.6 386.3 1235.6C366.9 1235.6 349 1246.1 339.6 1263.1L339.5 1263.3C318.8 1300.6 313.9 1343.8 325.7 1384.8C337.5 1425.7 364.5 1459.7 401.8 1480.4L402 1480.5C425.7 1493.7 452.4 1500.6 479.3 1500.6C507.3 1500.6 535 1493.2 559.3 1479.2C584.3 1464.8 605 1443.7 619.1 1418.3L619.3 1418C626.1 1405.6 627.7 1391.3 623.8 1377.6C619.9 1363.7 610.9 1352.3 598.4 1345.4ZM615.9 1415.9L615.7 1416.2C602 1441 581.8 1461.5 557.4 1475.6C533.7 1489.3 506.7 1496.5 479.4 1496.5C453.2 1496.5 427.1 1489.7 404 1476.9L403.8 1476.8C367.4 1456.6 341.1 1423.5 329.6 1383.6C318.1 1343.6 322.9 1301.5 343.1 1265.1L343.2 1265C351.9 1249.3 368.5 1239.6 386.4 1239.6C394.4 1239.6 402.5 1241.6 409.6 1245.4L411.1 1246.3C422.3 1252.7 430.4 1263.1 434 1275.5C437.6 1287.9 436.2 1301.1 430.1 1312.5L429.3 1314.1C422.3 1327.3 420.8 1342.5 425 1356.8C429.2 1371.2 438.8 1383.1 451.9 1390.3C460.3 1395 469.9 1397.4 479.4 1397.4C499.6 1397.4 518.4 1386.5 528.5 1369.1L529.3 1367.8L529.5 1367.4C538.3 1352.2 554.7 1342.7 572.4 1342.7C580.7 1342.7 589 1344.8 596.4 1348.9C608 1355.3 616.3 1365.9 620 1378.6C623.6 1391.2 622.2 1404.4 615.9 1415.9Z" fill="currentColor"/>
<path d="M1970.99 1345.4C1963.09 1341 1954.09 1338.7 1945.09 1338.7C1925.99 1338.7 1908.19 1348.9 1898.69 1365.4L1897.69 1367C1888.39 1383.3 1870.89 1393.4 1852.09 1393.4C1843.19 1393.4 1834.39 1391.1 1826.49 1386.8C1814.29 1380.1 1805.39 1369 1801.49 1355.7C1797.59 1342.4 1798.99 1328.3 1805.49 1315.9L1806.29 1314.4C1812.89 1302.1 1814.39 1287.9 1810.49 1274.4C1806.59 1261 1797.89 1249.7 1785.69 1242.8L1784.09 1241.9C1776.29 1237.8 1767.59 1235.6 1758.89 1235.6C1739.49 1235.6 1721.59 1246.1 1712.19 1263.1L1712.09 1263.3C1691.39 1300.6 1686.49 1343.8 1698.29 1384.8C1710.09 1425.7 1737.09 1459.7 1774.39 1480.4L1774.59 1480.5C1798.29 1493.7 1824.99 1500.6 1851.89 1500.6C1879.89 1500.6 1907.59 1493.2 1931.89 1479.2C1956.89 1464.8 1977.59 1443.7 1991.69 1418.3L1991.89 1418C1998.69 1405.6 2000.29 1391.3 1996.39 1377.6C1992.49 1363.7 1983.49 1352.3 1970.99 1345.4ZM1988.49 1415.9L1988.29 1416.2C1974.59 1441 1954.39 1461.5 1929.99 1475.6C1906.29 1489.3 1879.29 1496.5 1851.99 1496.5C1825.79 1496.5 1799.69 1489.7 1776.59 1476.9L1776.39 1476.8C1739.99 1456.6 1713.69 1423.5 1702.19 1383.6C1690.69 1343.6 1695.49 1301.5 1715.69 1265.1L1715.79 1265C1724.49 1249.3 1741.09 1239.6 1758.99 1239.6C1766.99 1239.6 1775.09 1241.6 1782.19 1245.4L1783.69 1246.3C1794.89 1252.7 1802.99 1263.1 1806.59 1275.5C1810.19 1287.9 1808.79 1301.1 1802.69 1312.5L1801.89 1314.1C1794.89 1327.3 1793.39 1342.5 1797.59 1356.8C1801.79 1371.2 1811.39 1383.1 1824.49 1390.3C1832.89 1395 1842.49 1397.4 1851.99 1397.4C1872.19 1397.4 1890.99 1386.5 1901.09 1369.1L1901.89 1367.8L1902.09 1367.4C1910.89 1352.2 1927.29 1342.7 1944.99 1342.7C1953.29 1342.7 1961.59 1344.8 1968.99 1348.9C1980.59 1355.3 1988.89 1365.9 1992.59 1378.6C1996.19 1391.2 1994.79 1404.4 1988.49 1415.9Z" fill="currentColor"/>
<path d="M1646.49 818.8C1642.59 805 1633.49 793.6 1620.99 786.7C1613.09 782.3 1604.09 780 1595.09 780C1576.09 780 1558.29 790.2 1548.79 806.6L1547.69 808.4C1538.39 824.7 1520.89 834.8 1502.09 834.8C1493.19 834.8 1484.39 832.5 1476.49 828.2C1464.29 821.5 1455.39 810.4 1451.49 797.1C1447.59 783.8 1448.99 769.7 1455.49 757.3L1456.29 755.8C1462.89 743.4 1464.39 729.2 1460.49 715.8C1456.59 702.4 1447.89 691.1 1435.69 684.2L1434.09 683.3C1426.29 679.2 1417.59 677 1408.89 677C1389.49 677 1371.59 687.5 1362.19 704.4L1362.09 704.6C1341.39 741.9 1336.49 785.1 1348.29 826.1C1360.09 867.1 1387.19 901.1 1424.59 921.8L1425.09 922.1C1448.59 935.1 1475.19 941.9 1501.89 941.9C1529.89 941.9 1557.59 934.5 1581.89 920.5C1606.89 906.1 1627.49 885.1 1641.59 859.8L1641.69 859.6C1648.79 847 1650.39 832.5 1646.49 818.8ZM1638.29 857.5L1638.19 857.7C1624.49 882.4 1604.39 902.8 1579.99 916.9C1556.29 930.6 1529.29 937.8 1501.99 937.8C1475.99 937.8 1450.09 931.1 1427.09 918.5L1426.59 918.2C1390.09 898 1363.69 864.9 1352.19 824.9C1340.69 784.9 1345.49 742.8 1365.69 706.4L1365.79 706.2C1374.49 690.5 1391.09 680.8 1408.99 680.8C1416.99 680.8 1425.09 682.8 1432.19 686.6L1433.69 687.5C1444.89 693.9 1452.99 704.3 1456.59 716.7C1460.19 729.1 1458.79 742.3 1452.69 753.7L1452.59 753.8L1451.89 755.2C1444.89 768.4 1443.39 783.6 1447.59 797.9C1451.79 812.3 1461.39 824.2 1474.49 831.4C1482.89 836.1 1492.49 838.5 1501.99 838.5C1522.19 838.5 1540.99 827.6 1550.99 810.2L1551.89 808.7L1552.29 808C1561.19 793.1 1577.39 783.9 1594.89 783.9C1603.19 783.9 1611.49 786 1618.89 790.1C1630.49 796.5 1638.79 807.1 1642.49 819.8C1646.29 832.6 1644.69 846 1638.29 857.5Z" fill="currentColor"/>
<path d="M2938.99 867.5C2935.09 853.7 2925.99 842.3 2913.49 835.4C2905.59 831 2896.59 828.7 2887.59 828.7C2868.59 828.7 2850.79 838.9 2841.29 855.3L2840.19 857.1C2830.89 873.4 2813.39 883.5 2794.59 883.5C2785.69 883.5 2776.89 881.2 2768.99 876.9C2756.79 870.2 2747.89 859.1 2743.99 845.8C2740.09 832.5 2741.49 818.4 2747.99 806L2748.79 804.5C2755.39 792.1 2756.89 777.9 2752.99 764.5C2749.09 751.1 2740.39 739.8 2728.19 732.9L2726.59 732C2718.79 727.9 2710.09 725.7 2701.39 725.7C2681.99 725.7 2664.09 736.2 2654.69 753.1L2654.59 753.3C2633.89 790.6 2628.99 833.8 2640.79 874.8C2652.59 915.8 2679.69 949.8 2717.09 970.5L2717.59 970.8C2741.09 983.8 2767.69 990.6 2794.39 990.6C2822.39 990.6 2850.09 983.2 2874.39 969.2C2899.39 954.8 2919.99 933.8 2934.09 908.5L2934.19 908.3C2941.29 895.7 2942.89 881.2 2938.99 867.5ZM2930.79 906.2L2930.69 906.4C2916.99 931.1 2896.89 951.5 2872.49 965.6C2848.79 979.3 2821.79 986.5 2794.49 986.5C2768.49 986.5 2742.59 979.8 2719.59 967.2L2719.09 966.9C2682.59 946.7 2656.19 913.6 2644.69 873.6C2633.19 833.6 2637.99 791.5 2658.19 755.1L2658.29 754.9C2666.99 739.2 2683.59 729.5 2701.49 729.5C2709.49 729.5 2717.59 731.5 2724.69 735.3L2726.19 736.2C2737.39 742.6 2745.49 753 2749.09 765.4C2752.69 777.8 2751.29 791 2745.19 802.4L2745.09 802.5L2744.39 803.9C2737.39 817.1 2735.89 832.3 2740.09 846.6C2744.29 861 2753.89 872.9 2766.99 880.1C2775.39 884.8 2784.99 887.2 2794.49 887.2C2814.69 887.2 2833.49 876.3 2843.49 858.9L2844.39 857.4L2844.79 856.7C2853.69 841.8 2869.89 832.6 2887.39 832.6C2895.69 832.6 2903.99 834.7 2911.39 838.8C2922.99 845.2 2931.29 855.8 2934.99 868.5C2938.79 881.3 2937.19 894.7 2930.79 906.2Z" fill="currentColor"/>
<path d="M1097.2 1329.7L1101.1 1325.2C1120.7 1302.8 1118.8 1268.4 1096.8 1248.4L1095.6 1247.2L1095.5 1247.1C1084.5 1237.7 1070.4 1233.2 1056 1234.2C1041.6 1235.3 1028.3 1241.8 1018.7 1252.8L901 1386.8L900.9 1386.9C881 1409.7 883.3 1444.4 906 1464.3C916 1473.1 928.9 1477.9 942.3 1477.9C958.1 1477.9 973.1 1471.1 983.5 1459.3L1097.2 1329.7ZM980.4 1456.6C970.8 1467.6 956.8 1473.9 942.2 1473.9C929.8 1473.9 917.9 1469.4 908.6 1461.2C887.6 1442.8 885.5 1410.6 903.9 1389.4L1021.6 1255.4L1021.7 1255.3C1030.6 1245.2 1042.9 1239.1 1056.3 1238.1C1057.6 1238 1058.8 1238 1060.1 1238C1071.8 1238 1083.1 1242 1092.2 1249.5L1092.1 1249.6L1094.1 1251.3C1114.3 1269.7 1116.3 1301.2 1098.6 1322L980.4 1456.6Z" fill="currentColor"/>
<path d="M2022.85 746.637L2026.75 742.137C2046.35 719.737 2044.45 685.337 2022.45 665.337L2021.25 664.137L2021.15 664.037C2010.15 654.637 1996.05 650.137 1981.65 651.137C1967.25 652.237 1953.95 658.737 1944.35 669.737L1826.65 803.737L1826.55 803.837C1806.65 826.637 1808.95 861.337 1831.65 881.237C1841.65 890.037 1854.55 894.837 1867.95 894.837C1883.75 894.837 1898.75 888.037 1909.15 876.237L2022.85 746.637ZM1906.05 873.537C1896.45 884.537 1882.45 890.837 1867.85 890.837C1855.45 890.837 1843.55 886.337 1834.25 878.137C1813.25 859.737 1811.15 827.537 1829.55 806.337L1947.25 672.337L1947.35 672.237C1956.25 662.137 1968.55 656.037 1981.95 655.037C1983.25 654.937 1984.45 654.937 1985.75 654.937C1997.45 654.937 2008.75 658.937 2017.85 666.437L2017.75 666.537L2019.75 668.237C2039.95 686.637 2041.95 718.137 2024.25 738.937L1906.05 873.537Z" fill="currentColor"/>
<path d="M536.8 1574.6L535.6 1573.4L535.5 1573.3C524.5 1563.9 510.4 1559.4 496 1560.4C481.6 1561.5 468.5 1568 458.9 1578.7L341 1712.9C321 1735.7 323.2 1770.4 346 1790.4C356 1799.2 368.9 1804 382.3 1804C395.7 1804 408.6 1799.1 418.6 1790.3L418.5 1791.1L537.7 1655.3L541.2 1651.3C560.7 1629 558.7 1594.6 536.8 1574.6ZM538.3 1648.5L419.9 1783.3L419.4 1783.8C409.9 1794.1 396.3 1800 382.2 1800C369.8 1800 357.9 1795.5 348.6 1787.3C327.5 1768.8 325.5 1736.6 344 1715.5L461.8 1581.3C470.7 1571.3 482.9 1565.3 496.2 1564.3C497.5 1564.2 498.7 1564.2 500 1564.2C512 1564.2 523.5 1568.4 532.7 1576.2V1576.3L534 1577.5C554.4 1595.9 556.2 1627.7 538.3 1648.5Z" fill="currentColor"/>
<path d="M1909.39 1574.6L1908.19 1573.4L1908.09 1573.3C1897.09 1563.9 1882.99 1559.4 1868.59 1560.4C1854.19 1561.5 1841.09 1568 1831.49 1578.7L1713.59 1712.9C1693.59 1735.7 1695.79 1770.4 1718.59 1790.4C1728.59 1799.2 1741.49 1804 1754.89 1804C1768.29 1804 1781.19 1799.1 1791.19 1790.3L1791.09 1791.1L1910.29 1655.3L1913.79 1651.3C1933.29 1629 1931.29 1594.6 1909.39 1574.6ZM1910.89 1648.5L1792.49 1783.3L1791.99 1783.8C1782.49 1794.1 1768.89 1800 1754.79 1800C1742.39 1800 1730.49 1795.5 1721.19 1787.3C1700.09 1768.8 1698.09 1736.6 1716.59 1715.5L1834.39 1581.3C1843.29 1571.3 1855.49 1565.3 1868.79 1564.3C1870.09 1564.2 1871.29 1564.2 1872.59 1564.2C1884.59 1564.2 1896.09 1568.4 1905.29 1576.2V1576.3L1906.59 1577.5C1926.99 1595.9 1928.79 1627.7 1910.89 1648.5Z" fill="currentColor"/>
<path d="M1253.6 1608.6V1608.5C1252.3 1595.6 1246.2 1583.7 1236.6 1575C1227 1566.3 1214.6 1561.5 1201.8 1561.5C1200.3 1561.5 1198.7 1561.6 1197.1 1561.7H1197C1183.1 1563 1170.5 1569.5 1161.7 1580.2C1152.9 1590.9 1148.8 1604.4 1150.1 1618.3L1160.6 1722.8L1160.7 1723.8L1055.1 1731.6C1041.2 1732.6 1028.5 1739.1 1019.5 1749.7C1010.5 1760.3 1006.2 1773.8 1007.4 1787.6C1008.6 1800.7 1014.6 1812.7 1024.3 1821.6C1034 1830.4 1046.5 1835.3 1059.5 1835.3C1060.8 1835.3 1062.1 1835.3 1063.4 1835.2L1222 1823.4C1236 1822.4 1248.7 1815.9 1257.8 1805.1C1266.9 1794.3 1271.1 1780.7 1269.7 1766.6L1253.6 1608.6ZM1254.6 1802.4C1246.2 1812.3 1234.5 1818.3 1221.6 1819.3L1063 1831.1C1061.8 1831.2 1060.6 1831.2 1059.4 1831.2C1047.4 1831.2 1035.8 1826.7 1026.9 1818.6C1017.9 1810.4 1012.4 1799.3 1011.3 1787.2C1010.2 1774.5 1014.1 1762.1 1022.4 1752.3C1030.8 1742.5 1042.4 1736.5 1055.3 1735.6L1165 1727.5L1154 1617.9C1152.7 1605.1 1156.5 1592.6 1164.7 1582.8C1172.9 1572.9 1184.4 1566.9 1197.3 1565.7H1197.4C1210.7 1564.5 1223.9 1568.9 1233.9 1577.9C1242.8 1585.9 1248.4 1596.9 1249.6 1608.8L1265.6 1766.9C1266.9 1779.9 1262.9 1792.5 1254.6 1802.4Z" fill="currentColor"/>
<path d="M2626.19 1608.6V1608.5C2624.89 1595.6 2618.79 1583.7 2609.19 1575C2599.59 1566.3 2587.19 1561.5 2574.39 1561.5C2572.89 1561.5 2571.29 1561.6 2569.69 1561.7H2569.59C2555.69 1563 2543.09 1569.5 2534.29 1580.2C2525.49 1590.9 2521.39 1604.4 2522.69 1618.3L2533.19 1722.8L2533.29 1723.8L2427.69 1731.6C2413.79 1732.6 2401.09 1739.1 2392.09 1749.7C2383.09 1760.3 2378.79 1773.8 2379.99 1787.6C2381.19 1800.7 2387.19 1812.7 2396.89 1821.6C2406.59 1830.4 2419.09 1835.3 2432.09 1835.3C2433.39 1835.3 2434.69 1835.3 2435.99 1835.2L2594.59 1823.4C2608.59 1822.4 2621.29 1815.9 2630.39 1805.1C2639.49 1794.3 2643.69 1780.7 2642.29 1766.6L2626.19 1608.6ZM2627.19 1802.4C2618.79 1812.3 2607.09 1818.3 2594.19 1819.3L2435.59 1831.1C2434.39 1831.2 2433.19 1831.2 2431.99 1831.2C2419.99 1831.2 2408.39 1826.7 2399.49 1818.6C2390.49 1810.4 2384.99 1799.3 2383.89 1787.2C2382.79 1774.5 2386.69 1762.1 2394.99 1752.3C2403.39 1742.5 2414.99 1736.5 2427.89 1735.6L2537.59 1727.5L2526.59 1617.9C2525.29 1605.1 2529.09 1592.6 2537.29 1582.8C2545.49 1572.9 2556.99 1566.9 2569.89 1565.7H2569.99C2583.29 1564.5 2596.49 1568.9 2606.49 1577.9C2615.39 1585.9 2620.99 1596.9 2622.19 1608.8L2638.19 1766.9C2639.49 1779.9 2635.49 1792.5 2627.19 1802.4Z" fill="currentColor"/>
<path d="M1518.4 1305.6C1517.1 1292.7 1511 1280.8 1501.3 1272C1491.7 1263.3 1479.3 1258.5 1466.4 1258.5C1464.8 1258.5 1463.3 1258.6 1461.7 1258.7C1447.7 1259.9 1435.2 1266.5 1426.3 1277.2C1417.5 1287.9 1413.4 1301.4 1414.7 1315.3L1425.2 1419.8L1425.3 1420.8L1319.6 1428.6C1305.7 1429.6 1293 1436.1 1284 1446.7C1275 1457.3 1270.7 1470.8 1272 1484.6C1273.2 1497.7 1279.2 1509.7 1288.9 1518.6C1298.6 1527.4 1311.1 1532.3 1324.1 1532.3C1325.4 1532.3 1326.7 1532.3 1328 1532.2L1486.6 1520.4C1500.6 1519.4 1513.3 1512.9 1522.4 1502.1C1531.5 1491.3 1535.7 1477.7 1534.3 1463.6L1518.4 1305.6ZM1519.5 1499.5C1511.1 1509.4 1499.4 1515.4 1486.5 1516.4L1327.9 1528.2C1326.7 1528.3 1325.5 1528.3 1324.3 1528.3C1312.3 1528.3 1300.7 1523.8 1291.8 1515.7C1282.8 1507.5 1277.3 1496.4 1276.2 1484.3C1275.1 1471.6 1279 1459.2 1287.3 1449.4C1295.7 1439.6 1307.3 1433.6 1320.2 1432.7L1430 1424.6L1419 1315C1417.7 1302.2 1421.5 1289.7 1429.7 1279.9C1437.9 1270 1449.5 1263.9 1462.4 1262.8C1463.8 1262.7 1465.3 1262.6 1466.7 1262.6C1478.5 1262.6 1490 1267 1498.9 1275C1507.9 1283.1 1513.5 1294.1 1514.7 1306L1530.7 1464C1531.7 1476.9 1527.8 1489.6 1519.5 1499.5Z" fill="currentColor"/>
<path d="M2890.99 1305.6C2889.69 1292.7 2883.59 1280.8 2873.89 1272C2864.29 1263.3 2851.89 1258.5 2838.99 1258.5C2837.39 1258.5 2835.89 1258.6 2834.29 1258.7C2820.29 1259.9 2807.79 1266.5 2798.89 1277.2C2790.09 1287.9 2785.99 1301.4 2787.29 1315.3L2797.79 1419.8L2797.89 1420.8L2692.19 1428.6C2678.29 1429.6 2665.59 1436.1 2656.59 1446.7C2647.59 1457.3 2643.29 1470.8 2644.59 1484.6C2645.79 1497.7 2651.79 1509.7 2661.49 1518.6C2671.19 1527.4 2683.69 1532.3 2696.69 1532.3C2697.99 1532.3 2699.29 1532.3 2700.59 1532.2L2859.19 1520.4C2873.19 1519.4 2885.89 1512.9 2894.99 1502.1C2904.09 1491.3 2908.29 1477.7 2906.89 1463.6L2890.99 1305.6ZM2892.09 1499.5C2883.69 1509.4 2871.99 1515.4 2859.09 1516.4L2700.49 1528.2C2699.29 1528.3 2698.09 1528.3 2696.89 1528.3C2684.89 1528.3 2673.29 1523.8 2664.39 1515.7C2655.39 1507.5 2649.89 1496.4 2648.79 1484.3C2647.69 1471.6 2651.59 1459.2 2659.89 1449.4C2668.29 1439.6 2679.89 1433.6 2692.79 1432.7L2802.59 1424.6L2791.59 1315C2790.29 1302.2 2794.09 1289.7 2802.29 1279.9C2810.49 1270 2822.09 1263.9 2834.99 1262.8C2836.39 1262.7 2837.89 1262.6 2839.29 1262.6C2851.09 1262.6 2862.59 1267 2871.49 1275C2880.49 1283.1 2886.09 1294.1 2887.29 1306L2903.29 1464C2904.29 1476.9 2900.39 1489.6 2892.09 1499.5Z" fill="currentColor"/>
<path d="M829.6 1589.4C785 1589.4 748.7 1625.7 748.7 1670.3C748.7 1714.9 785 1751.1 829.6 1751.1C874.2 1751.1 910.5 1714.8 910.5 1670.3C910.5 1625.7 874.2 1589.4 829.6 1589.4ZM829.6 1747.1C787.2 1747.1 752.7 1712.6 752.7 1670.3C752.7 1627.9 787.2 1593.4 829.6 1593.4C872 1593.4 906.5 1627.9 906.5 1670.3C906.5 1712.6 872 1747.1 829.6 1747.1Z" fill="currentColor"/>
<path d="M2202.19 1589.4C2157.59 1589.4 2121.29 1625.7 2121.29 1670.3C2121.29 1714.9 2157.59 1751.1 2202.19 1751.1C2246.79 1751.1 2283.09 1714.8 2283.09 1670.3C2283.09 1625.7 2246.79 1589.4 2202.19 1589.4ZM2202.19 1747.1C2159.79 1747.1 2125.29 1712.6 2125.29 1670.3C2125.29 1627.9 2159.79 1593.4 2202.19 1593.4C2244.59 1593.4 2279.09 1627.9 2279.09 1670.3C2279.09 1712.6 2244.59 1747.1 2202.19 1747.1Z" fill="currentColor"/>
<path d="M1471.9 1698C1427.3 1698 1391 1734.3 1391 1778.9C1391 1823.5 1427.3 1859.7 1471.9 1859.7C1516.5 1859.7 1552.8 1823.4 1552.8 1778.9C1552.8 1734.3 1516.5 1698 1471.9 1698ZM1471.9 1855.7C1429.5 1855.7 1395 1821.2 1395 1778.9C1395 1736.5 1429.5 1702 1471.9 1702C1514.3 1702 1548.8 1736.5 1548.8 1778.9C1548.8 1821.2 1514.3 1855.7 1471.9 1855.7Z" fill="currentColor"/>
<path d="M94.2003 1443.2C49.6003 1443.2 13.3003 1479.5 13.3003 1524.1C13.3003 1568.7 49.6003 1604.9 94.2003 1604.9C138.8 1604.9 175.1 1568.6 175.1 1524.1C175 1479.5 138.7 1443.2 94.2003 1443.2ZM94.2003 1600.9C51.8003 1600.9 17.3003 1566.4 17.3003 1524.1C17.3003 1481.7 51.8003 1447.2 94.2003 1447.2C136.6 1447.2 171.1 1481.7 171.1 1524.1C171 1566.4 136.5 1600.9 94.2003 1600.9Z" fill="currentColor"/>
</svg>
