<svg width="1440" height="1546" fill="none" xmlns="http://www.w3.org/2000/svg"><g clip-path="url(#clip0)" stroke="#fff" stroke-width="4"><path d="M478.869 131.482l.009-.016.01-.016c14.226-24.747 45.794-33.644 70.994-19.712 25.347 14.082 34.535 46.099 20.456 71.442l-.001.001c-42.546 76.734-139.184 104.387-215.763 61.843l-.003-.002c-76.889-42.547-104.692-139.186-62.148-215.917l.001-.002c13.923-25.18 45.313-34.377 70.657-20.92l.725.434.769.462.018.01.018.01c24.597 14.078 33.496 45.201 20.153 70.255l-.012.023-.011.023-.759 1.517c-13.724 25.881-4.297 57.991 21.428 72.212 25.714 14.215 57.992 5.281 72.546-20.126l.913-1.521zM681.966 759.237l.01-.016.009-.017c14.226-24.747 45.794-33.644 70.994-19.712 25.347 14.082 34.535 46.1 20.456 71.442l-.001.001c-42.546 76.735-139.183 104.387-215.762 61.843l-.003-.001C480.78 830.23 452.976 733.591 495.52 656.86l.001-.002c13.923-25.18 45.313-34.378 70.657-20.921l.725.435.769.461.018.011.018.01c24.597 14.077 33.496 45.2 20.153 70.255l-.012.022-.011.023-.759 1.517c-13.724 25.881-4.296 57.992 21.428 72.212 25.715 14.215 57.993 5.281 72.546-20.125l.913-1.521zM933.551 223.039v.001c-19.116 21.783-52.163 23.862-73.955 4.739-21.783-19.116-23.862-52.163-4.739-73.954l117.7-134.01c18.958-21.475 51.523-23.857 73.303-5.39l.56.558.62.615.03.034.03.033c21.05 19.115 22.97 51.874 4.15 73.363L933.551 223.039zM373.496 549.225l-.001.001c-19.116 21.783-52.163 23.862-73.954 4.739-21.783-19.116-23.863-52.163-4.74-73.954l117.7-134.009c18.958-21.476 51.522-23.858 73.306-5.391l.557.558.616.615.034.034.035.033c21.042 19.115 22.97 51.874 4.149 73.363L373.496 549.225zM1018.17 920.031v.001c-19.112 21.783-52.158 23.862-73.95 4.739-21.783-19.116-23.863-52.163-4.74-73.954l117.7-134.009c18.96-21.476 51.52-23.858 73.31-5.391l.55.558.62.615.03.034.04.032c21.04 19.116 22.97 51.875 4.15 73.364l-117.71 134.011zM1161.73 418.921h0c-2.82-27.839-27.7-48.423-55.53-45.907v.001c-28.29 2.517-48.86 27.383-46.04 55.506l10.46 104.472.2 2.043-2.04.151-104.629 7.693c-28.129 2.073-49.291 26.797-46.775 54.91 2.518 27.843 26.958 48.723 54.942 46.65l158.632-11.848h0c28.42-2.072 49.59-27.233 46.78-55.655l-16-158.016zm0 0l16 158.011-16-158.011zM1469.45 71.194h0c-2.81-27.839-27.7-48.423-55.53-45.906h0c-28.28 2.517-48.85 27.384-46.04 55.507l10.46 104.471.21 2.044-2.05.15-104.63 7.693c-28.13 2.073-49.29 26.798-46.77 54.91 2.52 27.843 26.96 48.723 54.94 46.65l158.63-11.847h0c28.42-2.072 49.59-27.234 46.78-55.656l-16-158.016zm0 0l16 158.011-16-158.01zM198.554 628.172h0c-2.814-27.839-27.698-48.423-55.529-45.906h-.002c-28.282 2.517-48.85 27.384-46.038 55.507l10.462 104.471.205 2.044-2.048.15L.978 752.131c-28.128 2.073-49.29 26.798-46.775 54.91 2.519 27.844 26.959 48.723 54.943 46.65l158.63-11.847h.003c28.416-2.072 49.586-27.233 46.776-55.656l-16.001-158.016zm0 0l16.001 158.011-16.001-158.011zM895.546 1025.13h0c-2.814-27.834-27.698-48.418-55.528-45.902h-.003c-28.282 2.518-48.851 27.382-46.038 55.512l10.462 104.47.205 2.04-2.048.15-104.626 7.69c-28.128 2.08-49.29 26.8-46.775 54.91 2.519 27.85 26.959 48.73 54.943 46.65l158.63-11.84h.003c28.416-2.08 49.586-27.24 46.776-55.66l-16.001-158.02zm0 0l16.001 158.02-16.001-158.02zM861.475 435.735c0 44.103-35.752 79.855-79.854 79.855s-79.854-35.752-79.854-79.855c0-44.102 35.752-79.854 79.854-79.854s79.854 35.752 79.854 79.854zM126.018 289.567c0 44.102-35.752 79.854-79.855 79.854-44.102 0-79.854-35.752-79.854-79.854s35.752-79.854 79.854-79.854c44.103 0 79.855 35.752 79.855 79.854zM504.516 958.864c0 44.106-35.752 79.856-79.854 79.856s-79.854-35.75-79.854-79.856c0-44.102 35.752-79.854 79.854-79.854s79.854 35.752 79.854 79.854zM1341.52 1161.96c0 44.1-35.75 79.86-79.85 79.86-44.1 0-79.86-35.76-79.86-79.86s35.76-79.85 79.86-79.85 79.85 35.75 79.85 79.85zM289.11 1161.96c0 44.1-35.752 79.86-79.854 79.86s-79.854-35.76-79.854-79.86 35.752-79.85 79.854-79.85 79.854 35.75 79.854 79.85zM478.869 1364.48l.009-.01.01-.02c14.226-24.75 45.794-33.64 70.994-19.71 25.347 14.08 34.535 46.1 20.456 71.44h-.001c-42.546 76.74-139.184 104.39-215.763 61.84h-.003c-76.889-42.54-104.692-139.18-62.148-215.91l.001-.01c13.923-25.18 45.313-34.37 70.657-20.92l.725.44.769.46.018.01.018.01c24.597 14.08 33.496 45.2 20.153 70.25l-.012.03-.011.02-.759 1.52c-13.724 25.88-4.297 57.99 21.428 72.21 25.714 14.21 57.992 5.28 72.546-20.13l.913-1.52zM933.551 1456.04h0c-19.116 21.78-52.163 23.86-73.955 4.74-21.783-19.12-23.862-52.16-4.739-73.96l117.7-134c18.958-21.48 51.523-23.86 73.303-5.39l.56.55.62.62.03.03.03.03c21.05 19.12 22.97 51.88 4.15 73.37l-117.699 134.01zM1469.45 1304.19h0c-2.81-27.83-27.7-48.42-55.53-45.9h0c-28.28 2.52-48.85 27.38-46.04 55.5l10.46 104.48.21 2.04-2.05.15-104.63 7.69c-28.13 2.08-49.29 26.8-46.77 54.91 2.52 27.85 26.96 48.73 54.94 46.65l158.63-11.84h0c28.42-2.08 49.59-27.24 46.78-55.66l-16-158.02zm0 0l16 158.02-16-158.02zM126.018 1522.57c0 44.1-35.752 79.85-79.855 79.85-44.102 0-79.854-35.75-79.854-79.85 0-44.11 35.752-79.86 79.854-79.86 44.103 0 79.855 35.75 79.855 79.86z"/></g><defs><clipPath id="clip0"><path fill="#fff" d="M0 0h1440v1546H0z"/></clipPath></defs></svg>