<svg width="12" height="12" viewBox="0 0 12 12" fill="none" xmlns="http://www.w3.org/2000/svg">
<path d="M5.99992 8.99998C5.73472 8.99992 5.48041 8.89453 5.29292 8.70698L2.29292 5.70698C2.11076 5.51838 2.00997 5.26578 2.01224 5.00358C2.01452 4.74138 2.11969 4.49057 2.3051 4.30516C2.49051 4.11975 2.74132 4.01458 3.00352 4.01231C3.26571 4.01003 3.51832 4.11082 3.70692 4.29298L5.99992 6.58598L8.29292 4.29298C8.48152 4.11082 8.73412 4.01003 8.99632 4.01231C9.25852 4.01458 9.50933 4.11975 9.69474 4.30516C9.88015 4.49057 9.98531 4.74138 9.98759 5.00358C9.98987 5.26578 9.88908 5.51838 9.70692 5.70698L6.70692 8.70698C6.51943 8.89453 6.26511 8.99992 5.99992 8.99998Z" fill="currentColor"/>
</svg>
