<svg width="16" height="16" viewBox="0 0 16 16" fill="none" xmlns="http://www.w3.org/2000/svg">
<path d="M9.06091 8.00003L12.5309 4.53003C12.6675 4.38852 12.743 4.19903 12.7412 4.00238C12.7394 3.80573 12.6604 3.61766 12.5213 3.47867C12.3822 3.33968 12.194 3.26089 11.9974 3.25927C11.8007 3.25766 11.6113 3.33334 11.4699 3.47003L7.99991 6.93903L4.52991 3.47003C4.46125 3.39634 4.37845 3.33724 4.28645 3.29625C4.19445 3.25526 4.09513 3.23322 3.99443 3.23144C3.89373 3.22966 3.7937 3.24819 3.70031 3.28591C3.60692 3.32363 3.52209 3.37977 3.45087 3.45099C3.37965 3.52221 3.32351 3.60705 3.28579 3.70043C3.24807 3.79382 3.22954 3.89385 3.23132 3.99455C3.23309 4.09526 3.25514 4.19457 3.29613 4.28657C3.33712 4.37857 3.39622 4.46137 3.46991 4.53003L6.93891 8.00003L3.46991 11.47C3.39622 11.5387 3.33712 11.6215 3.29613 11.7135C3.25514 11.8055 3.23309 11.9048 3.23132 12.0055C3.22954 12.1062 3.24807 12.2062 3.28579 12.2996C3.32351 12.393 3.37965 12.4779 3.45087 12.5491C3.52209 12.6203 3.60692 12.6764 3.70031 12.7142C3.7937 12.7519 3.89373 12.7704 3.99443 12.7686C4.09513 12.7668 4.19445 12.7448 4.28645 12.7038C4.37845 12.6628 4.46125 12.6037 4.52991 12.53L7.99991 9.06103L11.4699 12.531C11.6114 12.6676 11.8009 12.7431 11.9976 12.7413C12.1942 12.7395 12.3823 12.6605 12.5213 12.5214C12.6603 12.3823 12.7391 12.1941 12.7407 11.9975C12.7423 11.8008 12.6666 11.6114 12.5299 11.47L9.06091 8.00003Z" fill="currentColor"/>
</svg>
