<svg width="12" height="12" viewBox="0 0 12 12" fill="none" xmlns="http://www.w3.org/2000/svg">
<path d="M10.53 9.47L8.25 7.19L9.8 5.643C9.9297 5.51291 10.0025 5.3367 10.0025 5.153C10.0025 4.9693 9.9297 4.79309 9.8 4.663C9.51665 4.3787 9.17981 4.15333 8.80891 3.99988C8.438 3.84644 8.04039 3.76797 7.639 3.769H7.517C7.07433 3.76847 6.64992 3.59253 6.33671 3.2797C6.02351 2.96687 5.84706 2.54267 5.846 2.1V1.692C5.84619 1.55498 5.80575 1.42098 5.72981 1.30693C5.65386 1.19289 5.54581 1.10391 5.41931 1.05126C5.29281 0.998604 5.15354 0.984631 5.0191 1.01111C4.88466 1.03758 4.76109 1.10331 4.664 1.2L1.2 4.664C1.10343 4.76097 1.03774 4.88436 1.0112 5.01861C0.984664 5.15286 0.998468 5.29197 1.05088 5.41839C1.10328 5.5448 1.19194 5.65287 1.30568 5.72897C1.41943 5.80507 1.55315 5.84579 1.69 5.846H2.1C2.54275 5.84679 2.96711 6.02316 3.27999 6.33642C3.59287 6.64968 3.76874 7.07425 3.769 7.517V7.634C3.75277 8.04488 3.82723 8.45429 3.9871 8.83313C4.14697 9.21198 4.38832 9.55097 4.694 9.826C4.82578 9.94326 4.99732 10.0059 5.17365 10.001C5.34998 9.99619 5.51784 9.9243 5.643 9.8L7.19 8.251L9.47 10.531C9.61152 10.6676 9.801 10.7431 9.99765 10.7413C10.1943 10.7395 10.3824 10.6605 10.5214 10.5214C10.6604 10.3822 10.7391 10.1941 10.7408 9.99745C10.7424 9.8008 10.6667 9.61139 10.53 9.47Z" fill="currentColor"/>
</svg>
