<svg width="16" height="16" viewBox="0 0 16 16" fill="none" xmlns="http://www.w3.org/2000/svg">
<path d="M6 14C6 14.3956 6.1173 14.7822 6.33706 15.1111C6.55682 15.44 6.86918 15.6964 7.23463 15.8478C7.60009 15.9991 8.00222 16.0387 8.39018 15.9616C8.77814 15.8844 9.13451 15.6939 9.41421 15.4142C9.69392 15.1345 9.8844 14.7781 9.96157 14.3902C10.0387 14.0022 9.99913 13.6001 9.84776 13.2346C9.69638 12.8692 9.44004 12.5568 9.11114 12.3371C8.78224 12.1173 8.39556 12 8 12C7.46957 12 6.96086 12.2107 6.58579 12.5858C6.21071 12.9609 6 13.4696 6 14ZM6 8C6 8.39556 6.1173 8.78224 6.33706 9.11114C6.55682 9.44004 6.86918 9.69638 7.23463 9.84776C7.60009 9.99913 8.00222 10.0387 8.39018 9.96157C8.77814 9.8844 9.13451 9.69392 9.41421 9.41421C9.69392 9.13451 9.8844 8.77814 9.96157 8.39018C10.0387 8.00222 9.99913 7.60008 9.84776 7.23463C9.69638 6.86918 9.44004 6.55682 9.11114 6.33706C8.78224 6.1173 8.39556 6 8 6C7.46957 6 6.96086 6.21071 6.58579 6.58579C6.21071 6.96086 6 7.46957 6 8ZM6 2C6 2.39556 6.1173 2.78224 6.33706 3.11114C6.55682 3.44004 6.86918 3.69638 7.23463 3.84776C7.60009 3.99913 8.00222 4.03874 8.39018 3.96157C8.77814 3.8844 9.13451 3.69392 9.41421 3.41421C9.69392 3.13451 9.8844 2.77814 9.96157 2.39018C10.0387 2.00222 9.99913 1.60008 9.84776 1.23463C9.69638 0.86918 9.44004 0.556823 9.11114 0.33706C8.78224 0.117297 8.39556 0 8 0C7.46957 0 6.96086 0.210713 6.58579 0.585786C6.21071 0.960859 6 1.46957 6 2Z" fill="currentColor"/>
</svg>
