<svg width="12" height="12" viewBox="0 0 12 12" fill="none" xmlns="http://www.w3.org/2000/svg">
<path d="M4.50006 10.5C4.30117 10.5 4.11043 10.4209 3.96981 10.2803L1.71981 8.03026C1.58319 7.88881 1.5076 7.69935 1.50931 7.50271C1.51101 7.30606 1.58989 7.11795 1.72895 6.97889C1.868 6.83984 2.05611 6.76096 2.25276 6.75925C2.44941 6.75754 2.63886 6.83314 2.78031 6.96976L4.39806 8.58751L9.13506 1.82026C9.24987 1.65934 9.42357 1.55026 9.61838 1.51673C9.81319 1.4832 10.0134 1.52794 10.1754 1.64121C10.3374 1.75448 10.4481 1.92713 10.4835 2.12161C10.5189 2.3161 10.476 2.51668 10.3643 2.67976L5.11431 10.1798C5.05183 10.2701 4.97028 10.3456 4.87541 10.4009C4.78055 10.4563 4.67469 10.4901 4.56531 10.5C4.54358 10.5011 4.5218 10.5011 4.50006 10.5Z" fill="white"/>
</svg>
