<svg width="248" height="80" viewBox="0 0 248 80" fill="none" xmlns="http://www.w3.org/2000/svg">
<path d="M75.916 26.831C74.232 22.779 70.816 18.404 68.141 17.021C70.049 20.7161 71.373 24.6845 72.066 28.785L72.073 28.85C67.691 17.925 60.26 13.52 54.191 3.928C53.884 3.443 53.577 2.957 53.278 2.444C53.107 2.151 52.97 1.887 52.851 1.644C52.5993 1.15656 52.4053 0.641408 52.273 0.109004C52.2732 0.084436 52.2643 0.0606626 52.2481 0.0422188C52.2318 0.0237749 52.2094 0.0119514 52.185 0.00900386C52.1611 0.00245119 52.1359 0.00245119 52.112 0.00900386C52.107 0.00900386 52.099 0.0180039 52.093 0.0200039C52.087 0.0220039 52.074 0.0310039 52.065 0.0350039L52.08 0.00900386C42.345 5.709 39.042 16.261 38.738 21.539C34.8503 21.8062 31.1334 23.2389 28.072 25.65C27.7526 25.3795 27.4188 25.1264 27.072 24.892C26.1889 21.8009 26.1512 18.5296 26.963 15.419C23.3879 17.1509 20.2113 19.606 17.634 22.629H17.616C16.08 20.682 16.188 14.262 16.276 12.921C15.8216 13.1036 15.3878 13.3339 14.982 13.608C13.626 14.5758 12.3584 15.6617 11.194 16.853C9.86709 18.1983 8.65519 19.6524 7.57099 21.2V21.206V21.199C5.07923 24.7316 3.31189 28.7227 2.37099 32.942L2.31899 33.198C2.24599 33.539 1.98299 35.247 1.93799 35.618C1.93799 35.647 1.93199 35.674 1.92899 35.703C1.58973 37.4663 1.3795 39.2521 1.29999 41.046V41.246C1.30848 50.9503 4.95701 60.2983 11.5245 67.4427C18.092 74.587 27.1006 79.0077 36.7699 79.8313C46.4391 80.6548 56.0656 77.8211 63.7466 71.8903C71.4277 65.9595 76.6045 57.3631 78.254 47.8C78.319 47.3 78.372 46.805 78.43 46.3C79.2283 39.7022 78.364 33.0096 75.916 26.831V26.831ZM31.246 57.169C31.427 57.256 31.597 57.35 31.783 57.433L31.81 57.45C31.622 57.36 31.434 57.2663 31.246 57.169V57.169ZM72.076 28.859V28.822L72.083 28.863L72.076 28.859Z" fill="url(#paint0_linear)"/>
<path d="M75.916 26.831C74.232 22.779 70.816 18.404 68.141 17.021C70.049 20.7161 71.373 24.6845 72.066 28.785V28.822L72.073 28.863C75.0603 37.4115 74.6282 46.7837 70.867 55.021C66.425 64.552 55.673 74.321 38.843 73.846C20.658 73.331 4.64299 59.837 1.64899 42.163C1.10399 39.376 1.64899 37.963 1.92299 35.698C1.54922 37.4574 1.34064 39.2478 1.29999 41.046V41.246C1.30848 50.9503 4.95701 60.2983 11.5245 67.4427C18.092 74.587 27.1006 79.0077 36.7699 79.8312C46.4391 80.6548 56.0656 77.8211 63.7466 71.8903C71.4277 65.9595 76.6045 57.3631 78.254 47.8C78.319 47.3 78.372 46.805 78.43 46.3C79.2283 39.7022 78.364 33.0096 75.916 26.831V26.831Z" fill="url(#paint1_radial)"/>
<path d="M75.916 26.831C74.232 22.779 70.816 18.404 68.141 17.021C70.049 20.7161 71.373 24.6845 72.066 28.785V28.822L72.073 28.863C75.0603 37.4115 74.6282 46.7837 70.867 55.021C66.425 64.552 55.673 74.321 38.843 73.846C20.658 73.331 4.64299 59.837 1.64899 42.163C1.10399 39.376 1.64899 37.963 1.92299 35.698C1.54922 37.4574 1.34064 39.2478 1.29999 41.046V41.246C1.30848 50.9503 4.95701 60.2983 11.5245 67.4427C18.092 74.587 27.1006 79.0077 36.7699 79.8312C46.4391 80.6548 56.0656 77.8211 63.7466 71.8903C71.4277 65.9595 76.6045 57.3631 78.254 47.8C78.319 47.3 78.372 46.805 78.43 46.3C79.2283 39.7022 78.364 33.0096 75.916 26.831V26.831Z" fill="url(#paint2_radial)"/>
<path d="M57.082 31.387C57.166 31.446 57.244 31.505 57.323 31.564C56.3495 29.8377 55.1375 28.2571 53.723 26.869C41.677 14.821 50.566 0.745972 52.065 0.0309722L52.08 0.00897217C42.345 5.70897 39.042 16.261 38.738 21.539C39.19 21.508 39.638 21.47 40.1 21.47C43.5542 21.4763 46.9451 22.3972 49.9279 24.1391C52.9108 25.881 55.3791 28.3817 57.082 31.387V31.387Z" fill="url(#paint3_radial)"/>
<path d="M40.125 33.793C40.061 34.757 36.655 38.082 35.464 38.082C24.443 38.082 22.654 44.749 22.654 44.749C23.142 50.363 27.054 54.987 31.783 57.433C31.999 57.545 32.218 57.646 32.437 57.745C32.8163 57.913 33.1957 58.0683 33.575 58.211C35.198 58.7854 36.8978 59.1133 38.618 59.184C57.935 60.09 61.677 36.084 47.737 29.118C51.0255 28.6901 54.3558 29.4987 57.082 31.387C55.3791 28.3817 52.9107 25.881 49.9279 24.1391C46.9451 22.3972 43.5542 21.4763 40.1 21.47C39.64 21.47 39.19 21.508 38.738 21.539C34.8503 21.8062 31.1334 23.2388 28.072 25.65C28.663 26.15 29.33 26.818 30.735 28.203C33.365 30.794 40.11 33.478 40.125 33.793Z" fill="url(#paint4_radial)"/>
<path d="M40.125 33.793C40.061 34.757 36.655 38.082 35.464 38.082C24.443 38.082 22.654 44.749 22.654 44.749C23.142 50.363 27.054 54.987 31.783 57.433C31.999 57.545 32.218 57.646 32.437 57.745C32.8163 57.913 33.1957 58.0683 33.575 58.211C35.198 58.7854 36.8978 59.1133 38.618 59.184C57.935 60.09 61.677 36.084 47.737 29.118C51.0255 28.6901 54.3558 29.4987 57.082 31.387C55.3791 28.3817 52.9107 25.881 49.9279 24.1391C46.9451 22.3972 43.5542 21.4763 40.1 21.47C39.64 21.47 39.19 21.508 38.738 21.539C34.8503 21.8062 31.1334 23.2388 28.072 25.65C28.663 26.15 29.33 26.818 30.735 28.203C33.365 30.794 40.11 33.478 40.125 33.793Z" fill="url(#paint5_radial)"/>
<path d="M26.265 24.361C26.579 24.561 26.838 24.735 27.065 24.892C26.1819 21.8009 26.1443 18.5296 26.956 15.419C23.381 17.1509 20.2043 19.606 17.627 22.629C17.816 22.624 23.438 22.523 26.265 24.361V24.361Z" fill="url(#paint6_radial)"/>
<path d="M1.65399 42.163C4.64499 59.837 20.663 73.331 38.848 73.846C55.678 74.322 66.43 64.552 70.872 55.021C74.6332 46.7837 75.0653 37.4115 72.078 28.863V28.826C72.078 28.797 72.072 28.78 72.078 28.789L72.085 28.854C73.46 37.831 68.894 46.528 61.756 52.409L61.734 52.459C47.826 63.786 34.516 59.293 31.822 57.459C31.634 57.369 31.446 57.2754 31.258 57.178C23.149 53.302 19.799 45.914 20.517 39.578C18.5921 39.6064 16.7003 39.076 15.0707 38.051C13.4412 37.026 12.1439 35.5504 11.336 33.803C13.4646 32.499 15.8917 31.7618 18.386 31.6616C20.8803 31.5615 23.3587 32.1018 25.585 33.231C30.1748 35.3147 35.3977 35.52 40.137 33.803C40.122 33.488 33.377 30.803 30.747 28.213C29.342 26.828 28.675 26.161 28.084 25.66C27.7646 25.3895 27.4308 25.1364 27.084 24.902C26.854 24.745 26.595 24.575 26.284 24.371C23.457 22.533 17.835 22.634 17.649 22.639H17.631C16.095 20.692 16.203 14.272 16.291 12.931C15.8366 13.1137 15.4028 13.3439 14.997 13.618C13.641 14.5858 12.3734 15.6717 11.209 16.863C9.87734 18.2046 8.66042 19.6553 7.57099 21.2V21.206V21.199C5.07923 24.7316 3.31189 28.7227 2.37099 32.942C2.35199 33.021 0.97499 39.041 1.65399 42.163V42.163Z" fill="url(#paint7_radial)"/>
<path d="M53.725 26.869C55.1399 28.2587 56.3518 29.8409 57.325 31.569C57.538 31.73 57.737 31.89 57.906 32.045C66.693 40.145 62.089 51.595 61.746 52.41C68.884 46.529 73.446 37.832 72.075 28.855C67.691 17.925 60.26 13.52 54.191 3.928C53.884 3.443 53.577 2.957 53.278 2.444C53.107 2.151 52.97 1.887 52.851 1.644C52.5993 1.15656 52.4053 0.641408 52.273 0.109004C52.2732 0.084436 52.2643 0.0606626 52.2481 0.0422188C52.2318 0.0237749 52.2094 0.0119514 52.185 0.00900386C52.1611 0.00245119 52.1359 0.00245119 52.112 0.00900386C52.107 0.00900386 52.099 0.0180039 52.093 0.0200039C52.087 0.0220039 52.074 0.0310039 52.065 0.0350039C50.566 0.746004 41.677 14.821 53.725 26.869Z" fill="url(#paint8_radial)"/>
<path d="M57.9 32.04C57.731 31.885 57.532 31.725 57.319 31.564C57.24 31.505 57.162 31.446 57.078 31.387C54.3518 29.4987 51.0215 28.6901 47.733 29.118C61.673 36.088 57.933 60.09 38.614 59.184C36.8938 59.1133 35.194 58.7854 33.571 58.211C33.1917 58.069 32.8123 57.9137 32.433 57.745C32.214 57.645 31.995 57.545 31.779 57.433L31.806 57.45C34.5 59.289 47.806 63.782 61.718 52.45L61.74 52.4C62.087 51.59 66.691 40.137 57.9 32.04V32.04Z" fill="url(#paint9_radial)"/>
<path d="M22.654 44.749C22.654 44.749 24.443 38.082 35.464 38.082C36.655 38.082 40.064 34.757 40.125 33.793C35.3858 35.51 30.1629 35.3047 25.573 33.221C23.3467 32.0918 20.8683 31.5515 18.374 31.6516C15.8797 31.7517 13.4526 32.4889 11.324 33.793C12.1319 35.5404 13.4292 37.016 15.0587 38.041C16.6883 39.066 18.5801 39.5964 20.505 39.568C19.787 45.905 23.137 53.293 31.246 57.168C31.427 57.255 31.597 57.349 31.783 57.432C27.05 54.987 23.142 50.363 22.654 44.749V44.749Z" fill="url(#paint10_radial)"/>
<path d="M75.916 26.831C74.232 22.779 70.816 18.404 68.141 17.021C70.049 20.7161 71.373 24.6845 72.066 28.785L72.073 28.85C67.691 17.925 60.26 13.52 54.191 3.928C53.884 3.443 53.577 2.957 53.278 2.444C53.107 2.151 52.97 1.887 52.851 1.644C52.5993 1.15656 52.4053 0.641408 52.273 0.109004C52.2732 0.084436 52.2643 0.0606626 52.2481 0.0422188C52.2318 0.0237749 52.2094 0.0119514 52.185 0.00900386C52.1611 0.00245119 52.1359 0.00245119 52.112 0.00900386C52.107 0.00900386 52.099 0.0180039 52.093 0.0200039C52.087 0.0220039 52.074 0.0310039 52.065 0.0350039L52.08 0.00900386C42.345 5.709 39.042 16.261 38.738 21.539C39.19 21.508 39.638 21.47 40.1 21.47C43.5542 21.4763 46.9451 22.3973 49.9279 24.1391C52.9107 25.881 55.3791 28.3817 57.082 31.387C54.3558 29.4987 51.0255 28.6901 47.737 29.118C61.677 36.088 57.937 60.09 38.618 59.184C36.8978 59.1134 35.198 58.7854 33.575 58.211C33.1957 58.069 32.8163 57.9137 32.437 57.745C32.218 57.645 31.999 57.545 31.783 57.433L31.81 57.45C31.622 57.36 31.434 57.2663 31.246 57.169C31.427 57.256 31.597 57.35 31.783 57.433C27.05 54.987 23.142 50.363 22.654 44.749C22.654 44.749 24.443 38.082 35.464 38.082C36.655 38.082 40.064 34.757 40.125 33.793C40.11 33.478 33.365 30.793 30.735 28.203C29.33 26.818 28.663 26.151 28.072 25.65C27.7526 25.3795 27.4188 25.1264 27.072 24.892C26.1889 21.8009 26.1512 18.5296 26.963 15.419C23.3879 17.1509 20.2113 19.606 17.634 22.629H17.616C16.08 20.682 16.188 14.262 16.276 12.921C15.8216 13.1036 15.3878 13.3339 14.982 13.608C13.626 14.5758 12.3584 15.6617 11.194 16.853C9.86709 18.1983 8.65519 19.6524 7.57099 21.2V21.206V21.199C5.07923 24.7316 3.31189 28.7227 2.37099 32.942L2.31899 33.198C2.24599 33.539 1.91899 35.271 1.87199 35.643C1.87199 35.671 1.87199 35.614 1.87199 35.643C1.5729 37.4309 1.38188 39.2351 1.29999 41.046V41.246C1.30848 50.9503 4.95701 60.2983 11.5245 67.4427C18.092 74.587 27.1006 79.0077 36.7699 79.8313C46.4391 80.6548 56.0656 77.8211 63.7466 71.8903C71.4277 65.9595 76.6045 57.3631 78.254 47.8C78.319 47.3 78.372 46.805 78.43 46.3C79.2283 39.7022 78.364 33.0096 75.916 26.831V26.831ZM72.071 28.822L72.078 28.863L72.071 28.822Z" fill="url(#paint11_linear)"/>
<path d="M96.972 23.986H118.4V29.786H103.12V37.645H118.4V43.397H103.12V56.039H96.972V23.986ZM125.688 21.747C126.163 21.7313 126.636 21.8141 127.078 21.99C127.519 22.166 127.919 22.4313 128.253 22.7694C128.588 23.1075 128.848 23.511 129.019 23.9546C129.189 24.3981 129.266 24.8722 129.245 25.347C129.246 26.2892 128.875 27.1937 128.213 27.8644C127.552 28.535 126.652 28.9176 125.71 28.9292C124.768 28.9408 123.859 28.5804 123.181 27.9262C122.503 27.2721 122.11 26.3769 122.088 25.435C122.07 24.9533 122.15 24.4729 122.323 24.0231C122.497 23.5733 122.76 23.1634 123.097 22.8184C123.433 22.4735 123.837 22.2006 124.282 22.0164C124.728 21.8322 125.206 21.7405 125.688 21.747ZM122.658 32.328H128.718V56.039H122.658V32.328ZM146.281 38.915C145.442 38.2516 144.408 37.8814 143.339 37.861C140.88 37.861 139.475 39.442 139.475 42.91V56.039H133.46V32.328H139.212V35.753C139.64 34.618 140.421 33.6509 141.442 32.9946C142.462 32.3383 143.666 32.0278 144.876 32.109C146.315 32.1051 147.723 32.5332 148.916 33.338L146.281 38.915ZM148.781 44.315C148.735 42.6873 149.018 41.067 149.612 39.5508C150.206 38.0346 151.099 36.6534 152.238 35.4898C153.377 34.3261 154.738 33.4036 156.242 32.7775C157.745 32.1513 159.359 31.8341 160.987 31.845C168.1 31.845 173.15 36.895 173.15 43.92V46.42H154.711C155.37 49.406 157.697 51.382 161.254 51.382C162.468 51.4196 163.667 51.1088 164.71 50.4862C165.753 49.8637 166.595 48.9554 167.138 47.869L172.187 50.899C169.687 54.587 166.128 56.519 161.078 56.519C153.394 56.522 148.784 51.385 148.784 44.315H148.781ZM154.796 41.637H167.266C166.608 38.607 164.149 36.937 160.943 36.937C159.533 36.8877 158.15 37.3293 157.03 38.1865C155.909 39.0437 155.121 40.2633 154.8 41.637H154.796ZM174.643 32.328H178.902V31.143C178.902 24.688 181.624 22.01 187.596 22.01H189.703V27.235H187.991C185.181 27.235 184.566 28.201 184.566 31.143V32.328H189.703V37.773H184.703V56.039H178.903V37.773H174.644L174.643 32.328ZM190.843 44.184C190.816 42.5521 191.118 40.9314 191.732 39.419C192.345 37.9066 193.257 36.5334 194.414 35.3815C195.57 34.2297 196.947 33.3228 198.462 32.7152C199.976 32.1075 201.598 31.8116 203.23 31.845C204.86 31.8303 206.476 32.1386 207.986 32.7521C209.496 33.3656 210.869 34.2721 212.027 35.4193C213.184 36.5665 214.103 37.9316 214.73 39.4359C215.357 40.9402 215.68 42.5538 215.68 44.1835C215.68 45.8132 215.357 47.4268 214.73 48.9311C214.103 50.4353 213.184 51.8005 212.027 52.9477C210.869 54.0949 209.496 55.0014 207.986 55.6149C206.476 56.2283 204.86 56.5367 203.23 56.522C201.592 56.5807 199.959 56.302 198.433 55.7033C196.907 55.1046 195.521 54.1987 194.36 53.0417C193.199 51.8847 192.288 50.5014 191.684 48.9777C191.08 47.4539 190.795 45.8223 190.848 44.184H190.843ZM209.723 44.184C209.723 42.4601 209.038 40.8068 207.819 39.5878C206.6 38.3688 204.947 37.684 203.223 37.684C201.499 37.684 199.846 38.3688 198.627 39.5878C197.408 40.8068 196.723 42.4601 196.723 44.184C196.723 45.9079 197.408 47.5612 198.627 48.7802C199.846 49.9992 201.499 50.684 203.223 50.684C204.947 50.684 206.6 49.9992 207.819 48.7802C209.038 47.5612 209.723 45.9079 209.723 44.184ZM223.774 43.92L215.212 32.328H222.325L227.375 39.617L232.556 32.328H239.537L230.843 43.876L239.976 56.039H232.907L227.243 48.311L221.754 56.039H214.69L223.774 43.92Z" fill="currentColor"/>
<path d="M96.972 23.986H118.4V29.786H103.12V37.645H118.4V43.397H103.12V56.039H96.972V23.986ZM125.688 21.747C126.163 21.7313 126.636 21.8141 127.078 21.99C127.519 22.166 127.919 22.4313 128.253 22.7694C128.588 23.1075 128.848 23.511 129.019 23.9546C129.189 24.3981 129.266 24.8722 129.245 25.347C129.246 26.2892 128.875 27.1937 128.213 27.8644C127.552 28.535 126.652 28.9176 125.71 28.9292C124.768 28.9408 123.859 28.5804 123.181 27.9262C122.503 27.2721 122.11 26.3769 122.088 25.435C122.07 24.9533 122.15 24.4729 122.323 24.0231C122.497 23.5733 122.76 23.1634 123.097 22.8184C123.433 22.4735 123.837 22.2006 124.282 22.0164C124.728 21.8322 125.206 21.7405 125.688 21.747ZM122.658 32.328H128.718V56.039H122.658V32.328ZM146.281 38.915C145.442 38.2516 144.408 37.8814 143.339 37.861C140.88 37.861 139.475 39.442 139.475 42.91V56.039H133.46V32.328H139.212V35.753C139.64 34.618 140.421 33.6509 141.442 32.9946C142.462 32.3383 143.666 32.0278 144.876 32.109C146.315 32.1051 147.723 32.5332 148.916 33.338L146.281 38.915ZM148.781 44.315C148.735 42.6873 149.018 41.067 149.612 39.5508C150.206 38.0346 151.099 36.6534 152.238 35.4898C153.377 34.3261 154.738 33.4036 156.242 32.7775C157.745 32.1513 159.359 31.8341 160.987 31.845C168.1 31.845 173.15 36.895 173.15 43.92V46.42H154.711C155.37 49.406 157.697 51.382 161.254 51.382C162.468 51.4196 163.667 51.1088 164.71 50.4862C165.753 49.8637 166.595 48.9554 167.138 47.869L172.187 50.899C169.687 54.587 166.128 56.519 161.078 56.519C153.394 56.522 148.784 51.385 148.784 44.315H148.781ZM154.796 41.637H167.266C166.608 38.607 164.149 36.937 160.943 36.937C159.533 36.8877 158.15 37.3293 157.03 38.1865C155.909 39.0437 155.121 40.2633 154.8 41.637H154.796ZM174.643 32.328H178.902V31.143C178.902 24.688 181.624 22.01 187.596 22.01H189.703V27.235H187.991C185.181 27.235 184.566 28.201 184.566 31.143V32.328H189.703V37.773H184.703V56.039H178.903V37.773H174.644L174.643 32.328ZM190.843 44.184C190.816 42.5521 191.118 40.9314 191.732 39.419C192.345 37.9066 193.257 36.5334 194.414 35.3815C195.57 34.2297 196.947 33.3228 198.462 32.7152C199.976 32.1075 201.598 31.8116 203.23 31.845C204.86 31.8303 206.476 32.1386 207.986 32.7521C209.496 33.3656 210.869 34.2721 212.027 35.4193C213.184 36.5665 214.103 37.9316 214.73 39.4359C215.357 40.9402 215.68 42.5538 215.68 44.1835C215.68 45.8132 215.357 47.4268 214.73 48.9311C214.103 50.4353 213.184 51.8005 212.027 52.9477C210.869 54.0949 209.496 55.0014 207.986 55.6149C206.476 56.2283 204.86 56.5367 203.23 56.522C201.592 56.5807 199.959 56.302 198.433 55.7033C196.907 55.1046 195.521 54.1987 194.36 53.0417C193.199 51.8847 192.288 50.5014 191.684 48.9777C191.08 47.4539 190.795 45.8223 190.848 44.184H190.843ZM209.723 44.184C209.723 42.4601 209.038 40.8068 207.819 39.5878C206.6 38.3688 204.947 37.684 203.223 37.684C201.499 37.684 199.846 38.3688 198.627 39.5878C197.408 40.8068 196.723 42.4601 196.723 44.184C196.723 45.9079 197.408 47.5612 198.627 48.7802C199.846 49.9992 201.499 50.684 203.223 50.684C204.947 50.684 206.6 49.9992 207.819 48.7802C209.038 47.5612 209.723 45.9079 209.723 44.184ZM223.774 43.92L215.212 32.328H222.325L227.375 39.617L232.556 32.328H239.537L230.843 43.876L239.976 56.039H232.907L227.243 48.311L221.754 56.039H214.69L223.774 43.92Z" fill="currentColor"/>
<defs>
<linearGradient id="paint0_linear" x1="70.786" y1="12.393" x2="6.44698" y2="74.468" gradientUnits="userSpaceOnUse">
<stop offset="0.048" stop-color="#FFF44F"/>
<stop offset="0.111" stop-color="#FFE847"/>
<stop offset="0.225" stop-color="#FFC830"/>
<stop offset="0.368" stop-color="#FF980E"/>
<stop offset="0.401" stop-color="#FF8B16"/>
<stop offset="0.462" stop-color="#FF672A"/>
<stop offset="0.534" stop-color="#FF3647"/>
<stop offset="0.705" stop-color="#E31587"/>
</linearGradient>
<radialGradient id="paint1_radial" cx="0" cy="0" r="1" gradientUnits="userSpaceOnUse" gradientTransform="translate(67.813 8.879) scale(80.797)">
<stop offset="0.129" stop-color="#FFBD4F"/>
<stop offset="0.186" stop-color="#FFAC31"/>
<stop offset="0.247" stop-color="#FF9D17"/>
<stop offset="0.283" stop-color="#FF980E"/>
<stop offset="0.403" stop-color="#FF563B"/>
<stop offset="0.467" stop-color="#FF3750"/>
<stop offset="0.71" stop-color="#F5156C"/>
<stop offset="0.782" stop-color="#EB0878"/>
<stop offset="0.86" stop-color="#E50080"/>
</radialGradient>
<radialGradient id="paint2_radial" cx="0" cy="0" r="1" gradientUnits="userSpaceOnUse" gradientTransform="translate(38.289 41.911) scale(80.797)">
<stop offset="0.3" stop-color="#960E18"/>
<stop offset="0.351" stop-color="#B11927" stop-opacity="0.74"/>
<stop offset="0.435" stop-color="#DB293D" stop-opacity="0.343"/>
<stop offset="0.497" stop-color="#F5334B" stop-opacity="0.094"/>
<stop offset="0.53" stop-color="#FF3750" stop-opacity="0"/>
</radialGradient>
<radialGradient id="paint3_radial" cx="0" cy="0" r="1" gradientUnits="userSpaceOnUse" gradientTransform="translate(48.03 -9.45703) scale(58.534)">
<stop offset="0.132" stop-color="#FFF44F"/>
<stop offset="0.252" stop-color="#FFDC3E"/>
<stop offset="0.506" stop-color="#FF9D12"/>
<stop offset="0.526" stop-color="#FF980E"/>
</radialGradient>
<radialGradient id="paint4_radial" cx="0" cy="0" r="1" gradientUnits="userSpaceOnUse" gradientTransform="translate(29.352 63.016) scale(38.471)">
<stop offset="0.353" stop-color="#3A8EE6"/>
<stop offset="0.472" stop-color="#5C79F0"/>
<stop offset="0.669" stop-color="#9059FF"/>
<stop offset="1" stop-color="#C139E6"/>
</radialGradient>
<radialGradient id="paint5_radial" cx="0" cy="0" r="1" gradientUnits="userSpaceOnUse" gradientTransform="translate(42.7042 35.2893) rotate(-13.5916) scale(20.3971 23.8799)">
<stop offset="0.206" stop-color="#9059FF" stop-opacity="0"/>
<stop offset="0.278" stop-color="#8C4FF3" stop-opacity="0.064"/>
<stop offset="0.747" stop-color="#7716A8" stop-opacity="0.45"/>
<stop offset="0.975" stop-color="#6E008B" stop-opacity="0.6"/>
</radialGradient>
<radialGradient id="paint6_radial" cx="0" cy="0" r="1" gradientUnits="userSpaceOnUse" gradientTransform="translate(37.269 5.57301) scale(27.676)">
<stop stop-color="#FFE226"/>
<stop offset="0.121" stop-color="#FFDB27"/>
<stop offset="0.295" stop-color="#FFC82A"/>
<stop offset="0.502" stop-color="#FFA930"/>
<stop offset="0.732" stop-color="#FF7E37"/>
<stop offset="0.792" stop-color="#FF7139"/>
</radialGradient>
<radialGradient id="paint7_radial" cx="0" cy="0" r="1" gradientUnits="userSpaceOnUse" gradientTransform="translate(59.023 -11.981) scale(118.081)">
<stop offset="0.113" stop-color="#FFF44F"/>
<stop offset="0.456" stop-color="#FF980E"/>
<stop offset="0.622" stop-color="#FF5634"/>
<stop offset="0.716" stop-color="#FF3647"/>
<stop offset="0.904" stop-color="#E31587"/>
</radialGradient>
<radialGradient id="paint8_radial" cx="0" cy="0" r="1" gradientUnits="userSpaceOnUse" gradientTransform="translate(49.0706 -5.41544) rotate(83.976) scale(86.5444 56.7983)">
<stop stop-color="#FFF44F"/>
<stop offset="0.06" stop-color="#FFE847"/>
<stop offset="0.168" stop-color="#FFC830"/>
<stop offset="0.304" stop-color="#FF980E"/>
<stop offset="0.356" stop-color="#FF8B16"/>
<stop offset="0.455" stop-color="#FF672A"/>
<stop offset="0.57" stop-color="#FF3647"/>
<stop offset="0.737" stop-color="#E31587"/>
</radialGradient>
<radialGradient id="paint9_radial" cx="0" cy="0" r="1" gradientUnits="userSpaceOnUse" gradientTransform="translate(36.617 15.824) scale(73.72)">
<stop offset="0.137" stop-color="#FFF44F"/>
<stop offset="0.48" stop-color="#FF980E"/>
<stop offset="0.592" stop-color="#FF5634"/>
<stop offset="0.655" stop-color="#FF3647"/>
<stop offset="0.904" stop-color="#E31587"/>
</radialGradient>
<radialGradient id="paint10_radial" cx="0" cy="0" r="1" gradientUnits="userSpaceOnUse" gradientTransform="translate(56.077 20.139) scale(80.686)">
<stop offset="0.094" stop-color="#FFF44F"/>
<stop offset="0.231" stop-color="#FFE141"/>
<stop offset="0.509" stop-color="#FFAF1E"/>
<stop offset="0.626" stop-color="#FF980E"/>
</radialGradient>
<linearGradient id="paint11_linear" x1="70.013" y1="12.061" x2="15.267" y2="66.806" gradientUnits="userSpaceOnUse">
<stop offset="0.167" stop-color="#FFF44F" stop-opacity="0.8"/>
<stop offset="0.266" stop-color="#FFF44F" stop-opacity="0.634"/>
<stop offset="0.489" stop-color="#FFF44F" stop-opacity="0.217"/>
<stop offset="0.6" stop-color="#FFF44F" stop-opacity="0"/>
</linearGradient>
</defs>
</svg>
