<svg width="57" height="89" viewBox="0 0 57 89" fill="none" xmlns="http://www.w3.org/2000/svg">
<path d="M15.3946 26.3572H7.6602L4.93884 59L1.71619 72.4286L5.15369 75.4286L5.7266 73.7143L8.51957 74.6429L15.3946 26.3572Z" fill="var(--card-background)" stroke="var(--card-color-secondary)" stroke-width="1" stroke-miterlimit="10" stroke-linecap="round" stroke-linejoin="round"/>
<path d="M38.3828 69.7143C38.3828 69.7143 35.4466 67.2857 35.5898 61.7857C35.733 56.2857 37.0221 46.1428 37.0221 46.1428L14.1054 46.0714L13.3893 77.5L42.608 75.9286L38.3828 69.7143Z" fill="var(--card-background)" stroke="var(--card-color-secondary)" stroke-width="1" stroke-miterlimit="10" stroke-linecap="round" stroke-linejoin="round"/>
<path d="M30.5768 50.2857C33.7805 50.2857 36.3776 47.6953 36.3776 44.4999C36.3776 41.3046 33.7805 38.7142 30.5768 38.7142C27.3731 38.7142 24.776 41.3046 24.776 44.4999C24.776 47.6953 27.3731 50.2857 30.5768 50.2857Z" fill="var(--card-background)" stroke="var(--card-color-secondary)" stroke-width="1" stroke-miterlimit="10" stroke-linecap="round" stroke-linejoin="round"/>
<path d="M29.1446 47.5C31.4781 47.5 33.3698 45.6132 33.3698 43.2857C33.3698 40.9582 31.4781 39.0714 29.1446 39.0714C26.811 39.0714 24.9193 40.9582 24.9193 43.2857C24.9193 45.6132 26.811 47.5 29.1446 47.5Z" fill="#EFCC03" stroke="var(--card-color-secondary)" stroke-width="1" stroke-miterlimit="10" stroke-linecap="round" stroke-linejoin="round"/>
<path d="M24.5612 25.7143C23.9166 48.0715 21.1237 57.0001 21.1237 57.0001C21.1237 57.0001 21.625 61.5715 27.927 62.3572C34.3724 63.1429 35.8763 57.2143 35.8763 57.2143C35.8763 57.2143 38.5976 41.1429 39.3138 18.7858L24.5612 25.7143ZM31.1497 49.5715C28.3567 49.8572 25.8502 47.8572 25.4921 45.0715C25.2057 42.2858 27.2109 39.7858 30.0039 39.4286C32.7968 39.1429 35.3033 41.1429 35.6614 43.9286C35.9479 46.7858 33.9427 49.2858 31.1497 49.5715Z" fill="var(--card-background)" stroke="var(--card-color-secondary)" stroke-width="1" stroke-miterlimit="10" stroke-linecap="round" stroke-linejoin="round"/>
<path d="M13.2461 7.71425L9.23572 7.64282L5.58337 15.2857L8.44796 25.2143C8.44796 25.2143 9.88025 25.3571 11.3842 25.5C13.1745 25.6428 15.0365 25.7857 15.1081 25.7857L15.7526 7.78568L13.2461 7.71425Z" fill="var(--card-background)" stroke="var(--card-color-secondary)" stroke-width="1" stroke-miterlimit="10" stroke-linecap="round" stroke-linejoin="round"/>
<path d="M3.57207 22.0984L3.02075 29.5781L17.5907 30.6465L18.142 23.1667L3.57207 22.0984Z" fill="var(--card-background)" stroke="var(--card-color-secondary)" stroke-width="1" stroke-miterlimit="10" stroke-linecap="round" stroke-linejoin="round"/>
<path d="M4.48334 25.9194C4.63703 23.8343 4.21802 22.1041 3.54746 22.0549C2.8769 22.0057 2.20871 23.6562 2.05502 25.7414C1.90132 27.8265 2.32033 29.5567 2.99089 29.6059C3.66146 29.655 4.32965 28.0046 4.48334 25.9194Z" fill="var(--card-background)" stroke="var(--card-color-secondary)" stroke-width="1" stroke-miterlimit="10" stroke-linecap="round" stroke-linejoin="round"/>
<path d="M5.84073 33.9895L4.11853 57.3549L12.4748 57.9676L14.197 34.6023L5.84073 33.9895Z" fill="var(--card-background)" stroke="var(--card-color-secondary)" stroke-width="1" stroke-miterlimit="10" stroke-linecap="round" stroke-linejoin="round"/>
<path d="M7.38645 45.8147C7.86202 39.3625 7.16035 34.0523 5.81922 33.954C4.4781 33.8556 3.00537 39.0064 2.5298 45.4586C2.05423 51.9107 2.7559 57.221 4.09702 57.3193C5.43815 57.4176 6.91087 52.2668 7.38645 45.8147Z" fill="var(--card-background)" stroke="var(--card-color-secondary)" stroke-width="1" stroke-miterlimit="10" stroke-linecap="round" stroke-linejoin="round"/>
<path d="M41.9636 21.9286C40.4597 42.8572 38.3829 56.9286 38.3829 56.9286C38.3829 56.9286 36.2344 65.7858 26.7097 64.5715C17.4714 63.3572 16.7552 56.5715 16.7552 56.5715C16.7552 56.5715 17.3998 42.5001 18.9037 21.7858L25.2058 24.4286C24.6329 43.4286 22.2696 57.0715 22.2696 57.0715C22.2696 57.0715 22.6993 60.9286 27.9987 61.5715C33.5131 62.2858 34.7305 57.2143 34.7305 57.2143C34.7305 57.2143 37.0938 43.5715 37.6667 24.5715L41.9636 21.9286Z" fill="var(--card-background)" stroke="var(--card-color-secondary)" stroke-width="1" stroke-miterlimit="10" stroke-linecap="round" stroke-linejoin="round"/>
<path d="M14.9649 64.4285C14.9649 64.4285 17.1133 71.2142 25.8503 71.6428C34.5873 72.0714 37.0938 68.4285 37.0938 68.4285C37.0938 68.4285 39.6719 56.9999 40.5313 49.2857C41.3907 41.5714 41.6771 28.7142 41.6771 28.7142L49.125 32.4285L43.181 74.5714C43.181 74.5714 34.086 78.5714 26.1368 77.5714C18.1875 76.5714 13.5326 69.9999 13.5326 69.9999L14.9649 64.4285Z" fill="var(--card-background)" stroke="var(--card-color-secondary)" stroke-width="1" stroke-miterlimit="10" stroke-linecap="round" stroke-linejoin="round"/>
<path d="M17.2566 44.7857C18.1875 33.5714 18.7605 27.9285 18.8321 24C19.1185 12.4285 18.1159 13.2143 16.9701 7.85711C16.3972 5.21425 15.2513 3.07139 14.8217 1.64282L9.80863 6.78568C11.4558 16.9285 12.3151 21.2143 9.88025 49.1428C8.01827 70.9285 4.29431 75.5714 2.79041 76.5714C2.43233 76.7857 2.36072 77.2142 2.57556 77.5714L6.58598 83.2857C7.94665 81.2857 10.4532 78.2143 12.2435 74.2143C15.1081 67.8571 15.7526 62.7857 17.2566 44.7857Z" fill="var(--card-background)" stroke="var(--card-color-secondary)" stroke-width="1" stroke-miterlimit="10" stroke-linecap="round" stroke-linejoin="round"/>
<path d="M51.2734 10.9286C51.2734 10.8571 51.2018 10.8571 51.2018 10.7857C52.6341 24.5 51.345 34.0714 50.9869 46.0714C50.6289 61.4286 46.6184 75.2143 44.3268 81.1428C45.3294 79.7857 46.4036 78.2143 47.3346 76.5C48.6237 74.1428 50.2708 70.7143 51.9895 63.3571C52.5625 60.9286 54.2812 53.3571 54.9974 40.0714C55.069 38.2143 55.6419 34.7143 54.4244 22.7143C54.138 19.6428 53.6367 15.5714 51.2734 10.9286Z" fill="var(--card-background)" stroke="var(--card-color-secondary)" stroke-width="1" stroke-miterlimit="10" stroke-linecap="round" stroke-linejoin="round"/>
<path d="M46.905 4.50001C46.905 4.50001 38.9558 1.28573 32.8685 1.07144C27.4974 0.857154 14.8217 1.7143 14.8217 1.7143C15.2513 3.2143 15.8959 5.35715 16.4688 7.92858C17.6146 13.2143 18.474 12.4286 18.1875 24.0714C18.1159 27.9286 17.6146 33.6429 16.6836 44.8572C15.1797 62.7857 14.5352 67.8572 11.7422 74.2857C9.95186 78.2857 8.01827 81.4286 6.65759 83.3572C6.65759 83.3572 14.1055 86.1429 19.1901 86.7857C29.073 88 39.3138 86.8571 39.3138 86.8571C40.7461 85.5 42.6081 83.5714 44.3985 81.1429C46.6901 75.2857 51.4167 61.4286 51.7748 46.0714C52.0612 34.1429 52.7058 24.5714 51.2019 10.7857C49.7696 8.00001 48.1224 5.85715 46.905 4.50001ZM43.6823 51.4286C42.823 58.3572 40.5313 68.3572 40.1016 70.2857C40.03 70.5714 39.8868 70.7857 39.7435 71C38.8842 72 35.8047 74.9286 28.2852 74.5714C20.9089 74.2857 18.2592 70.8572 17.543 69.5C17.3998 69.2143 17.3282 68.8572 17.3282 68.5C17.543 66.4286 18.474 58 19.405 49.8572C20.5508 40.2143 20.7657 33.7143 20.8373 31.7143C20.8373 31.2857 21.0521 30.8572 21.3386 30.5714C22.7709 29.1429 27.3542 25.2143 34.086 26.1429C40.8894 27.0714 43.8256 32 44.6133 33.7143C44.7566 34.0714 44.8282 34.4286 44.8282 34.7857C44.7565 36.9286 44.4701 44.7857 43.6823 51.4286Z" fill="var(--card-background)" stroke="var(--card-color-secondary)" stroke-width="1" stroke-miterlimit="10" stroke-linecap="round" stroke-linejoin="round"/>
</svg>
