<svg width="135" height="15" viewBox="0 0 135 15" fill="none" xmlns="http://www.w3.org/2000/svg">
<path d="M4.152 5.152C3.156 5.152 2.364 5.644 1.896 6.46V5.296H0.996V13.564H1.896V10.336C2.364 11.152 3.156 11.644 4.152 11.644C5.784 11.644 7.008 10.3 7.008 8.392C7.008 6.496 5.784 5.152 4.152 5.152ZM3.984 10.84C2.76 10.84 1.896 9.82 1.896 8.392C1.896 6.964 2.76 5.956 3.984 5.956C5.196 5.956 6.06 6.964 6.06 8.392C6.06 9.82 5.196 10.84 3.984 10.84ZM11.4443 11.644C13.1843 11.644 14.6483 10.156 14.6483 8.392C14.6483 6.628 13.1843 5.152 11.4443 5.152C9.70434 5.152 8.22834 6.628 8.22834 8.392C8.22834 10.156 9.70434 11.644 11.4443 11.644ZM11.4443 10.84C10.2083 10.84 9.17634 9.724 9.17634 8.392C9.17634 7.072 10.2083 5.956 11.4443 5.956C12.6683 5.956 13.7003 7.072 13.7003 8.392C13.7003 9.724 12.6683 10.84 11.4443 10.84ZM17.4843 11.5H18.3363L20.0043 6.544L21.6483 11.5H22.5003L24.5883 5.296H23.6283L22.0803 10.3L20.3883 5.296H19.6083L17.9163 10.3L16.3683 5.296H15.4083L17.4843 11.5ZM28.3877 10.84C27.1637 10.84 26.3117 9.952 26.1797 8.74H31.2557C31.2557 6.568 30.1877 5.152 28.3157 5.152C26.6477 5.152 25.2557 6.532 25.2557 8.38C25.2557 10.288 26.7437 11.644 28.3997 11.644C29.2637 11.644 30.3557 11.272 30.8957 10.684L30.3437 10.096C29.9597 10.516 29.1197 10.84 28.3877 10.84ZM28.3517 5.956C29.5877 5.956 30.2477 6.82 30.3677 7.936H26.1917C26.3597 6.736 27.2477 5.956 28.3517 5.956ZM33.7124 6.508V5.296H32.8124V11.5H33.7124V8.032C33.7124 6.82 34.7084 5.956 36.1124 5.956V5.152C34.9724 5.152 34.0844 5.68 33.7124 6.508ZM40.1533 10.84C38.9293 10.84 38.0773 9.952 37.9453 8.74H43.0213C43.0213 6.568 41.9533 5.152 40.0813 5.152C38.4133 5.152 37.0213 6.532 37.0213 8.38C37.0213 10.288 38.5093 11.644 40.1653 11.644C41.0293 11.644 42.1213 11.272 42.6613 10.684L42.1093 10.096C41.7253 10.516 40.8853 10.84 40.1533 10.84ZM40.1173 5.956C41.3533 5.956 42.0133 6.82 42.1333 7.936H37.9573C38.1253 6.736 39.0133 5.956 40.1173 5.956ZM49.342 3.112V6.46C48.874 5.644 48.082 5.152 47.086 5.152C45.454 5.152 44.23 6.496 44.23 8.392C44.23 10.3 45.454 11.644 47.086 11.644C48.082 11.644 48.874 11.152 49.342 10.336V11.5H50.242V3.112H49.342ZM47.254 10.84C46.042 10.84 45.178 9.82 45.178 8.392C45.178 6.964 46.042 5.956 47.254 5.956C48.478 5.956 49.342 6.964 49.342 8.392C49.342 9.82 48.478 10.84 47.254 10.84ZM58.8668 5.152C57.8708 5.152 57.0788 5.644 56.6108 6.46V3.112H55.7108V11.5H56.6108V10.336C57.0788 11.152 57.8708 11.644 58.8668 11.644C60.4988 11.644 61.7228 10.3 61.7228 8.392C61.7228 6.496 60.4988 5.152 58.8668 5.152ZM58.6988 10.84C57.4748 10.84 56.6108 9.82 56.6108 8.392C56.6108 6.964 57.4748 5.956 58.6988 5.956C59.9108 5.956 60.7748 6.964 60.7748 8.392C60.7748 9.82 59.9108 10.84 58.6988 10.84ZM64.2032 13.66C65.0552 13.648 65.6552 13.252 66.0872 12.196L68.9192 5.296H67.9472L65.8952 10.456L63.7232 5.296H62.7272L65.4272 11.524L65.0672 12.292C64.8272 12.712 64.5632 12.844 64.1672 12.844C63.9032 12.844 63.6512 12.796 63.4352 12.688L63.2192 13.456C63.5072 13.588 63.8432 13.66 64.2032 13.66Z" fill="currentColor"/>
<path fill-rule="evenodd" clip-rule="evenodd" d="M76.3611 1.375H87.25C88.0017 1.375 88.6111 1.98439 88.6111 2.73611V6.81944C88.6111 10.578 85.5642 13.625 81.8056 13.625C80.0006 13.625 78.2696 12.908 76.9933 11.6317C75.717 10.3554 75 8.62439 75 6.81944V2.73611C75 1.98439 75.6094 1.375 76.3611 1.375Z" stroke="#FF298A" stroke-width="2" stroke-linecap="round" stroke-linejoin="round"/>
<path d="M79.0833 6.13892L81.8055 8.86114L84.5278 6.13892" stroke="#FF298A" stroke-width="2" stroke-linecap="round" stroke-linejoin="round"/>
<path d="M94.4271 11.5H96.1911V8.824H98.1351C99.9231 8.824 101.243 7.672 101.243 6.04C101.243 4.408 99.9231 3.256 98.1351 3.256H94.4271V11.5ZM96.1911 7.204V4.876H97.9431C98.8191 4.876 99.4191 5.332 99.4191 6.04C99.4191 6.748 98.8191 7.204 97.9431 7.204H96.1911ZM105.349 11.644C107.185 11.644 108.721 10.156 108.721 8.392C108.721 6.628 107.185 5.152 105.349 5.152C103.501 5.152 101.953 6.628 101.953 8.392C101.953 10.156 103.501 11.644 105.349 11.644ZM105.349 10.168C104.413 10.168 103.633 9.352 103.633 8.392C103.633 7.432 104.413 6.628 105.349 6.628C106.273 6.628 107.053 7.432 107.053 8.392C107.053 9.352 106.273 10.168 105.349 10.168ZM112.942 11.644C113.974 11.644 114.814 11.224 115.426 10.552L114.262 9.568C113.938 9.928 113.434 10.168 112.954 10.168C112.03 10.168 111.262 9.352 111.262 8.38C111.262 7.432 112.03 6.628 112.942 6.628C113.422 6.628 113.914 6.856 114.226 7.204L115.39 6.208C114.79 5.56 113.962 5.152 112.954 5.152C111.118 5.152 109.558 6.628 109.558 8.392C109.558 10.156 111.106 11.644 112.942 11.644ZM122.517 5.296H120.501L118.197 7.972V3.112H116.445V11.5H118.197V9.976L118.941 9.172L120.477 11.5H122.493L120.105 8.044L122.517 5.296ZM126.264 10.096C125.532 10.096 124.992 9.64 124.788 8.968H129.264C129.264 6.628 128.124 5.152 126.18 5.152C124.368 5.152 122.988 6.508 122.988 8.38C122.988 10.288 124.428 11.644 126.276 11.644C127.188 11.644 128.256 11.26 128.808 10.684L127.692 9.544C127.356 9.868 126.756 10.096 126.264 10.096ZM126.252 6.7C126.96 6.7 127.416 7.096 127.584 7.708H124.812C125.04 7.084 125.592 6.7 126.252 6.7ZM133.713 9.964C133.593 10.084 133.353 10.168 133.113 10.168C132.789 10.168 132.525 9.88 132.525 9.472V6.712H133.869V5.296H132.525V3.592H130.845V5.296H129.993V6.712H130.845V9.748C130.845 10.864 131.613 11.644 132.705 11.644C133.209 11.644 133.773 11.428 134.133 11.104L133.713 9.964Z" fill="currentColor"/>
</svg>
