<svg width="212" height="32" viewBox="0 0 212 32" fill="none" xmlns="http://www.w3.org/2000/svg">
<rect x="0.5" y="0.5" width="211" height="31" rx="7.5" fill="var(--card-background)" stroke="var(--card-color-primary)"/>
<path fill-rule="evenodd" clip-rule="evenodd" d="M18 14C18 16.2091 16.2091 18 14 18C11.7909 18 10 16.2091 10 14C10 11.7909 11.7909 10 14 10C16.2091 10 18 11.7909 18 14ZM17.1644 17.8715C16.3024 18.5768 15.2006 19 14 19C11.2386 19 9 16.7614 9 14C9 11.2386 11.2386 9 14 9C16.7614 9 19 11.2386 19 14C19 15.2006 18.5768 16.3024 17.8715 17.1644L22.3536 21.6464C22.5488 21.8417 22.5488 22.1583 22.3536 22.3536C22.1583 22.5488 21.8417 22.5488 21.6464 22.3536L17.1644 17.8715Z" fill="var(--card-color-primary)"/>
</svg>
